%FSTAX23Y23*%
%MOIN*%
%SFA1B1*%

%IPPOS*%
%ADD74C,0.005000*%
%ADD138C,0.006667*%
%ADD139C,0.004000*%
%LNpcb_power_measurement_drawing_1-1*%
%LPD*%
G54D74*
X03642Y0311D02*
Y0315D01*
X03682*
Y0311*
X03642*
X03742D02*
Y0315D01*
X03782*
Y0311*
X03742*
X0369Y0323D02*
Y0327D01*
X0373*
Y0323*
X0369*
X02461Y0186D02*
X02441Y019D01*
X02481*
X02461Y0186*
X04049Y01855D02*
X04029Y01895D01*
X04069*
X04049Y01855*
Y03373D02*
X04029Y03413D01*
X04069*
X04049Y03373*
X02461D02*
X02441Y03413D01*
X02481*
X02461Y03373*
X04328Y01942D02*
X04338Y01952D01*
X04348*
X04338Y01962*
X04348Y01972*
X04338*
X04328Y01982*
X04318Y01972*
X04308*
X04318Y01962*
X04308Y01952*
X04318*
X04328Y01942*
X04669D02*
X04679Y01952D01*
X04689*
X04679Y01962*
X04689Y01972*
X04679*
X04669Y01982*
X04659Y01972*
X04649*
X04659Y01962*
X04649Y01952*
X04659*
X04669Y01942*
X04309Y02153D02*
X04319Y02173D01*
X04309Y02193*
X04329Y02183*
X04349Y02193*
X04339Y02173*
X04349Y02153*
X04329Y02163*
X04309Y02153*
X04649D02*
X04659Y02173D01*
X04649Y02193*
X04669Y02183*
X04689Y02193*
X04679Y02173*
X04689Y02153*
X04669Y02163*
X04649Y02153*
X02781Y03449D02*
Y03439D01*
X02801*
Y03449*
X02811*
Y03469*
X02801*
Y03479*
X02781*
Y03469*
X02771*
Y03449*
X02781*
X03104D02*
Y03439D01*
X03124*
Y03449*
X03134*
Y03469*
X03124*
Y03479*
X03104*
Y03469*
X03094*
Y03449*
X03104*
X03011Y03439D02*
X03021D01*
X03031Y03449*
X03041Y03439*
X03051*
Y03449*
X03041Y03459*
X03051Y03469*
Y03479*
X03041*
X03031Y03469*
X03021Y03479*
X03011*
Y03469*
X03021Y03459*
X03011Y03449*
Y03439*
X02854D02*
X02864D01*
X02874Y03449*
X02884Y03439*
X02894*
Y03449*
X02884Y03459*
X02894Y03469*
Y03479*
X02884*
X02874Y03469*
X02864Y03479*
X02854*
Y03469*
X02864Y03459*
X02854Y03449*
Y03439*
X02932D02*
X02942D01*
X02952Y03449*
X02962Y03439*
X02972*
Y03449*
X02962Y03459*
X02972Y03469*
Y03479*
X02962*
X02952Y03469*
X02942Y03479*
X02932*
Y03469*
X02942Y03459*
X02932Y03449*
Y03439*
X02955Y031D02*
X02975Y0312D01*
X02995Y031*
X02975Y0308*
X02955Y031*
X03548Y03462D02*
X03558Y03482D01*
X03548Y03502*
X03568Y03492*
X03588Y03502*
X03578Y03482*
X03588Y03462*
X03568Y03472*
X03548Y03462*
X03208D02*
X03218Y03482D01*
X03208Y03502*
X03228Y03492*
X03248Y03502*
X03238Y03482*
X03248Y03462*
X03228Y03472*
X03208Y03462*
X03567Y03252D02*
X03577Y03262D01*
X03587*
X03577Y03272*
X03587Y03282*
X03577*
X03567Y03292*
X03557Y03282*
X03547*
X03557Y03272*
X03547Y03262*
X03557*
X03567Y03252*
X03227D02*
X03237Y03262D01*
X03247*
X03237Y03272*
X03247Y03282*
X03237*
X03227Y03292*
X03217Y03282*
X03207*
X03217Y03272*
X03207Y03262*
X03217*
X03227Y03252*
X03898Y02111D02*
X03918Y02131D01*
X03938Y02111*
X03918Y02091*
X03898Y02111*
X02925Y02677D02*
X02945Y02697D01*
X02965Y02677*
X02945Y02657*
X02925Y02677*
X02356Y02969D02*
X02376Y02989D01*
X02396Y02969*
X02376Y02949*
X02356Y02969*
X04065Y02111D02*
X04085Y02131D01*
X04105Y02111*
X04085Y02091*
X04065Y02111*
Y03169D02*
X04085Y03189D01*
X04105Y03169*
X04085Y03149*
X04065Y03169*
X03595Y02855D02*
Y02895D01*
X03635*
Y02855*
X03595*
X03603Y02863D02*
Y02887D01*
X03627*
Y02863*
X03603*
X03542Y02736D02*
Y02776D01*
X03582*
Y02736*
X03542*
X0355Y02744D02*
Y02768D01*
X03574*
Y02744*
X0355*
X03557Y02674D02*
Y02714D01*
X03597*
Y02674*
X03557*
X03565Y02682D02*
Y02706D01*
X03589*
Y02682*
X03565*
X03648Y02569D02*
Y02609D01*
X03688*
Y02569*
X03648*
X03656Y02577D02*
Y02601D01*
X0368*
Y02577*
X03656*
X03529Y02649D02*
Y02689D01*
X03569*
Y02649*
X03529*
X03537Y02657D02*
Y02681D01*
X03561*
Y02657*
X03537*
X03455Y02648D02*
Y02688D01*
X03495*
Y02648*
X03455*
X03463Y02656D02*
Y0268D01*
X03487*
Y02656*
X03463*
X03756Y02967D02*
Y03007D01*
X03796*
Y02967*
X03756*
X03764Y02975D02*
Y02999D01*
X03788*
Y02975*
X03764*
X03212Y03069D02*
Y03109D01*
X03252*
Y03069*
X03212*
X0322Y03077D02*
Y03101D01*
X03244*
Y03077*
X0322*
X02494Y02597D02*
Y02637D01*
X02534*
Y02597*
X02494*
X02502Y02605D02*
Y02629D01*
X02526*
Y02605*
X02502*
X02494Y02647D02*
Y02687D01*
X02534*
Y02647*
X02494*
X02502Y02655D02*
Y02679D01*
X02526*
Y02655*
X02502*
X02356Y02599D02*
Y02639D01*
X02396*
Y02599*
X02356*
X02364Y02607D02*
Y02631D01*
X02388*
Y02607*
X02364*
X02356Y02647D02*
Y02687D01*
X02396*
Y02647*
X02356*
X02364Y02655D02*
Y02679D01*
X02388*
Y02655*
X02364*
X02457Y02762D02*
Y02802D01*
X02497*
Y02762*
X02457*
X02465Y0277D02*
Y02794D01*
X02489*
Y0277*
X02465*
X02372Y02296D02*
Y02336D01*
X02412*
Y02296*
X02372*
X0238Y02304D02*
Y02328D01*
X02404*
Y02304*
X0238*
X03483Y03012D02*
Y03052D01*
X03523*
Y03012*
X03483*
X03491Y0302D02*
Y03044D01*
X03515*
Y0302*
X03491*
X03383Y02621D02*
Y02661D01*
X03423*
Y02621*
X03383*
X03391Y02629D02*
Y02653D01*
X03415*
Y02629*
X03391*
X03472Y02627D02*
Y02667D01*
X03512*
Y02627*
X03472*
X0348Y02635D02*
Y02659D01*
X03504*
Y02635*
X0348*
X03528Y02593D02*
Y02633D01*
X03568*
Y02593*
X03528*
X03536Y02601D02*
Y02625D01*
X0356*
Y02601*
X03536*
X03691Y02778D02*
Y02818D01*
X03731*
Y02778*
X03691*
X03699Y02786D02*
Y0281D01*
X03723*
Y02786*
X03699*
X04065Y02575D02*
Y02615D01*
X04105*
Y02575*
X04065*
X04073Y02583D02*
Y02607D01*
X04097*
Y02583*
X04073*
X03967Y02864D02*
Y02904D01*
X04007*
Y02864*
X03967*
X03975Y02872D02*
Y02896D01*
X03999*
Y02872*
X03975*
X03919Y02865D02*
Y02905D01*
X03959*
Y02865*
X03919*
X03927Y02873D02*
Y02897D01*
X03951*
Y02873*
X03927*
X03738Y02675D02*
Y02715D01*
X03778*
Y02675*
X03738*
X03746Y02683D02*
Y02707D01*
X0377*
Y02683*
X03746*
X03492Y02792D02*
Y02832D01*
X03532*
Y02792*
X03492*
X035Y028D02*
Y02824D01*
X03524*
Y028*
X035*
X03912Y02643D02*
Y02683D01*
X03952*
Y02643*
X03912*
X0392Y02651D02*
Y02675D01*
X03944*
Y02651*
X0392*
X03875Y02557D02*
Y02597D01*
X03915*
Y02557*
X03875*
X03883Y02565D02*
Y02589D01*
X03907*
Y02565*
X03883*
X03803Y02554D02*
Y02594D01*
X03843*
Y02554*
X03803*
X03811Y02562D02*
Y02586D01*
X03835*
Y02562*
X03811*
X03876Y02802D02*
Y02842D01*
X03916*
Y02802*
X03876*
X03884Y0281D02*
Y02834D01*
X03908*
Y0281*
X03884*
X04394Y02083D02*
X04374Y02123D01*
X04414*
X04394Y02083*
Y02091D02*
X04382Y02115D01*
X04406*
X04394Y02091*
X04183Y01975D02*
Y02015D01*
X04223*
Y01975*
X04183*
X04568Y01731D02*
X04548Y01771D01*
X04588*
X04568Y01731*
Y01739D02*
X04556Y01763D01*
X0458*
X04568Y01739*
X0447Y01731D02*
X0445Y01771D01*
X0449*
X0447Y01731*
Y01739D02*
X04458Y01763D01*
X04482*
X0447Y01739*
X04489Y01745D02*
X04469Y01785D01*
X04509*
X04489Y01745*
Y01753D02*
X04477Y01777D01*
X04501*
X04489Y01753*
X0441Y01745D02*
X0439Y01785D01*
X0443*
X0441Y01745*
Y01753D02*
X04398Y01777D01*
X04422*
X0441Y01753*
X0443Y01731D02*
X0441Y01771D01*
X0445*
X0443Y01731*
Y01739D02*
X04418Y01763D01*
X04442*
X0443Y01739*
X04529Y01741D02*
X04509Y01781D01*
X04549*
X04529Y01741*
Y01749D02*
X04517Y01773D01*
X04541*
X04529Y01749*
X04549Y01745D02*
X04529Y01785D01*
X04569*
X04549Y01745*
Y01753D02*
X04537Y01777D01*
X04561*
X04549Y01753*
X0445Y01745D02*
X0443Y01785D01*
X0447*
X0445Y01745*
Y01753D02*
X04438Y01777D01*
X04462*
X0445Y01753*
X04509Y01731D02*
X04489Y01771D01*
X04529*
X04509Y01731*
Y01739D02*
X04497Y01763D01*
X04521*
X04509Y01739*
X04528Y02022D02*
X04508Y02062D01*
X04548*
X04528Y02022*
Y0203D02*
X04516Y02054D01*
X0454*
X04528Y0203*
X04588Y01743D02*
X04568Y01783D01*
X04608*
X04588Y01743*
Y01751D02*
X04576Y01775D01*
X046*
X04588Y01751*
X04469Y02023D02*
X04449Y02063D01*
X04489*
X04469Y02023*
Y02031D02*
X04457Y02055D01*
X04481*
X04469Y02031*
X03387Y02012D02*
Y02052D01*
X03427*
Y02012*
X03387*
X03395Y0202D02*
Y02044D01*
X03419*
Y0202*
X03395*
X03354Y02237D02*
Y02277D01*
X03394*
Y02237*
X03354*
X03362Y02245D02*
Y02269D01*
X03386*
Y02245*
X03362*
X04489Y02038D02*
X04469Y02078D01*
X04509*
X04489Y02038*
Y02046D02*
X04477Y0207D01*
X04501*
X04489Y02046*
X04603Y02083D02*
X04583Y02123D01*
X04623*
X04603Y02083*
Y02091D02*
X04591Y02115D01*
X04615*
X04603Y02091*
X04509Y02054D02*
X04489Y02094D01*
X04529*
X04509Y02054*
Y02062D02*
X04497Y02086D01*
X04521*
X04509Y02062*
X04446Y02083D02*
X04426Y02123D01*
X04466*
X04446Y02083*
Y02091D02*
X04434Y02115D01*
X04458*
X04446Y02091*
X04552Y02083D02*
X04532Y02123D01*
X04572*
X04552Y02083*
Y02091D02*
X0454Y02115D01*
X04564*
X04552Y02091*
X03357Y02496D02*
X03367Y02506D01*
X03377*
X03367Y02516*
X03377Y02526*
X03367*
X03357Y02536*
X03347Y02526*
X03337*
X03347Y02516*
X03337Y02506*
X03347*
X03357Y02496*
Y02504D02*
X03363Y0251D01*
X03369*
X03363Y02516*
X03369Y02522*
X03363*
X03357Y02528*
X03351Y02522*
X03345*
X03351Y02516*
X03345Y0251*
X03351*
X03357Y02504*
X0343Y02496D02*
X0344Y02506D01*
X0345*
X0344Y02516*
X0345Y02526*
X0344*
X0343Y02536*
X0342Y02526*
X0341*
X0342Y02516*
X0341Y02506*
X0342*
X0343Y02496*
Y02504D02*
X03436Y0251D01*
X03442*
X03436Y02516*
X03442Y02522*
X03436*
X0343Y02528*
X03424Y02522*
X03418*
X03424Y02516*
X03418Y0251*
X03424*
X0343Y02504*
X0332Y02496D02*
X0333Y02506D01*
X0334*
X0333Y02516*
X0334Y02526*
X0333*
X0332Y02536*
X0331Y02526*
X033*
X0331Y02516*
X033Y02506*
X0331*
X0332Y02496*
Y02504D02*
X03326Y0251D01*
X03332*
X03326Y02516*
X03332Y02522*
X03326*
X0332Y02528*
X03314Y02522*
X03308*
X03314Y02516*
X03308Y0251*
X03314*
X0332Y02504*
X03319Y02423D02*
X03329Y02433D01*
X03339*
X03329Y02443*
X03339Y02453*
X03329*
X03319Y02463*
X03309Y02453*
X03299*
X03309Y02443*
X03299Y02433*
X03309*
X03319Y02423*
Y02431D02*
X03325Y02437D01*
X03331*
X03325Y02443*
X03331Y02449*
X03325*
X03319Y02455*
X03313Y02449*
X03307*
X03313Y02443*
X03307Y02437*
X03313*
X03319Y02431*
X03357Y02423D02*
X03367Y02433D01*
X03377*
X03367Y02443*
X03377Y02453*
X03367*
X03357Y02463*
X03347Y02453*
X03337*
X03347Y02443*
X03337Y02433*
X03347*
X03357Y02423*
Y02431D02*
X03363Y02437D01*
X03369*
X03363Y02443*
X03369Y02449*
X03363*
X03357Y02455*
X03351Y02449*
X03345*
X03351Y02443*
X03345Y02437*
X03351*
X03357Y02431*
X0343Y02423D02*
X0344Y02433D01*
X0345*
X0344Y02443*
X0345Y02453*
X0344*
X0343Y02463*
X0342Y02453*
X0341*
X0342Y02443*
X0341Y02433*
X0342*
X0343Y02423*
Y02431D02*
X03436Y02437D01*
X03442*
X03436Y02443*
X03442Y02449*
X03436*
X0343Y02455*
X03424Y02449*
X03418*
X03424Y02443*
X03418Y02437*
X03424*
X0343Y02431*
X03392Y02423D02*
X03402Y02433D01*
X03412*
X03402Y02443*
X03412Y02453*
X03402*
X03392Y02463*
X03382Y02453*
X03372*
X03382Y02443*
X03372Y02433*
X03382*
X03392Y02423*
Y02431D02*
X03398Y02437D01*
X03404*
X03398Y02443*
X03404Y02449*
X03398*
X03392Y02455*
X03386Y02449*
X0338*
X03386Y02443*
X0338Y02437*
X03386*
X03392Y02431*
X03466Y02423D02*
X03476Y02433D01*
X03486*
X03476Y02443*
X03486Y02453*
X03476*
X03466Y02463*
X03456Y02453*
X03446*
X03456Y02443*
X03446Y02433*
X03456*
X03466Y02423*
Y02431D02*
X03472Y02437D01*
X03478*
X03472Y02443*
X03478Y02449*
X03472*
X03466Y02455*
X0346Y02449*
X03454*
X0346Y02443*
X03454Y02437*
X0346*
X03466Y02431*
X0343Y02386D02*
X0344Y02396D01*
X0345*
X0344Y02406*
X0345Y02416*
X0344*
X0343Y02426*
X0342Y02416*
X0341*
X0342Y02406*
X0341Y02396*
X0342*
X0343Y02386*
Y02394D02*
X03436Y024D01*
X03442*
X03436Y02406*
X03442Y02412*
X03436*
X0343Y02418*
X03424Y02412*
X03418*
X03424Y02406*
X03418Y024*
X03424*
X0343Y02394*
Y02459D02*
X0344Y02469D01*
X0345*
X0344Y02479*
X0345Y02489*
X0344*
X0343Y02499*
X0342Y02489*
X0341*
X0342Y02479*
X0341Y02469*
X0342*
X0343Y02459*
Y02467D02*
X03436Y02473D01*
X03442*
X03436Y02479*
X03442Y02485*
X03436*
X0343Y02491*
X03424Y02485*
X03418*
X03424Y02479*
X03418Y02473*
X03424*
X0343Y02467*
X03357Y02536D02*
X03367Y02546D01*
X03377*
X03367Y02556*
X03377Y02566*
X03367*
X03357Y02576*
X03347Y02566*
X03337*
X03347Y02556*
X03337Y02546*
X03347*
X03357Y02536*
Y02544D02*
X03363Y0255D01*
X03369*
X03363Y02556*
X03369Y02562*
X03363*
X03357Y02568*
X03351Y02562*
X03345*
X03351Y02556*
X03345Y0255*
X03351*
X03357Y02544*
X0343Y02535D02*
X0344Y02545D01*
X0345*
X0344Y02555*
X0345Y02565*
X0344*
X0343Y02575*
X0342Y02565*
X0341*
X0342Y02555*
X0341Y02545*
X0342*
X0343Y02535*
Y02543D02*
X03436Y02549D01*
X03442*
X03436Y02555*
X03442Y02561*
X03436*
X0343Y02567*
X03424Y02561*
X03418*
X03424Y02555*
X03418Y02549*
X03424*
X0343Y02543*
X03466Y02496D02*
X03476Y02506D01*
X03486*
X03476Y02516*
X03486Y02526*
X03476*
X03466Y02536*
X03456Y02526*
X03446*
X03456Y02516*
X03446Y02506*
X03456*
X03466Y02496*
Y02504D02*
X03472Y0251D01*
X03478*
X03472Y02516*
X03478Y02522*
X03472*
X03466Y02528*
X0346Y02522*
X03454*
X0346Y02516*
X03454Y0251*
X0346*
X03466Y02504*
X03393Y02496D02*
X03403Y02506D01*
X03413*
X03403Y02516*
X03413Y02526*
X03403*
X03393Y02536*
X03383Y02526*
X03373*
X03383Y02516*
X03373Y02506*
X03383*
X03393Y02496*
Y02504D02*
X03399Y0251D01*
X03405*
X03399Y02516*
X03405Y02522*
X03399*
X03393Y02528*
X03387Y02522*
X03381*
X03387Y02516*
X03381Y0251*
X03387*
X03393Y02504*
X03357Y02459D02*
X03367Y02469D01*
X03377*
X03367Y02479*
X03377Y02489*
X03367*
X03357Y02499*
X03347Y02489*
X03337*
X03347Y02479*
X03337Y02469*
X03347*
X03357Y02459*
Y02467D02*
X03363Y02473D01*
X03369*
X03363Y02479*
X03369Y02485*
X03363*
X03357Y02491*
X03351Y02485*
X03345*
X03351Y02479*
X03345Y02473*
X03351*
X03357Y02467*
Y02386D02*
X03367Y02396D01*
X03377*
X03367Y02406*
X03377Y02416*
X03367*
X03357Y02426*
X03347Y02416*
X03337*
X03347Y02406*
X03337Y02396*
X03347*
X03357Y02386*
Y02394D02*
X03363Y024D01*
X03369*
X03363Y02406*
X03369Y02412*
X03363*
X03357Y02418*
X03351Y02412*
X03345*
X03351Y02406*
X03345Y024*
X03351*
X03357Y02394*
X0337Y02983D02*
X0338Y02993D01*
X0339*
X0338Y03003*
X0339Y03013*
X0338*
X0337Y03023*
X0336Y03013*
X0335*
X0336Y03003*
X0335Y02993*
X0336*
X0337Y02983*
Y02991D02*
X03376Y02997D01*
X03382*
X03376Y03003*
X03382Y03009*
X03376*
X0337Y03015*
X03364Y03009*
X03358*
X03364Y03003*
X03358Y02997*
X03364*
X0337Y02991*
X03395Y02958D02*
X03405Y02968D01*
X03415*
X03405Y02978*
X03415Y02988*
X03405*
X03395Y02998*
X03385Y02988*
X03375*
X03385Y02978*
X03375Y02968*
X03385*
X03395Y02958*
Y02966D02*
X03401Y02972D01*
X03407*
X03401Y02978*
X03407Y02984*
X03401*
X03395Y0299*
X03389Y02984*
X03383*
X03389Y02978*
X03383Y02972*
X03389*
X03395Y02966*
Y03008D02*
X03405Y03018D01*
X03415*
X03405Y03028*
X03415Y03038*
X03405*
X03395Y03048*
X03385Y03038*
X03375*
X03385Y03028*
X03375Y03018*
X03385*
X03395Y03008*
Y03016D02*
X03401Y03022D01*
X03407*
X03401Y03028*
X03407Y03034*
X03401*
X03395Y0304*
X03389Y03034*
X03383*
X03389Y03028*
X03383Y03022*
X03389*
X03395Y03016*
X0342Y02983D02*
X0343Y02993D01*
X0344*
X0343Y03003*
X0344Y03013*
X0343*
X0342Y03023*
X0341Y03013*
X034*
X0341Y03003*
X034Y02993*
X0341*
X0342Y02983*
Y02991D02*
X03426Y02997D01*
X03432*
X03426Y03003*
X03432Y03009*
X03426*
X0342Y03015*
X03414Y03009*
X03408*
X03414Y03003*
X03408Y02997*
X03414*
X0342Y02991*
X03395Y02983D02*
X03405Y02993D01*
X03415*
X03405Y03003*
X03415Y03013*
X03405*
X03395Y03023*
X03385Y03013*
X03375*
X03385Y03003*
X03375Y02993*
X03385*
X03395Y02983*
Y02991D02*
X03401Y02997D01*
X03407*
X03401Y03003*
X03407Y03009*
X03401*
X03395Y03015*
X03389Y03009*
X03383*
X03389Y03003*
X03383Y02997*
X03389*
X03395Y02991*
X03689Y02348D02*
Y02388D01*
X03729*
Y02348*
X03689*
X03697Y02356D02*
Y0238D01*
X03721*
Y02356*
X03697*
X03432Y02299D02*
Y02339D01*
X03472*
Y02299*
X03432*
X0344Y02307D02*
Y02331D01*
X03464*
Y02307*
X0344*
X03115Y02291D02*
Y02331D01*
X03155*
Y02291*
X03115*
X03017Y02365D02*
Y02405D01*
X03057*
Y02365*
X03017*
X03025Y02373D02*
Y02397D01*
X03049*
Y02373*
X03025*
X03017Y0243D02*
Y0247D01*
X03057*
Y0243*
X03017*
X03025Y02438D02*
Y02462D01*
X03049*
Y02438*
X03025*
X0301Y02502D02*
Y02542D01*
X0305*
Y02502*
X0301*
X03018Y0251D02*
Y02534D01*
X03042*
Y0251*
X03018*
X03337Y03341D02*
Y03381D01*
X03377*
Y03341*
X03337*
X03345Y03349D02*
Y03373D01*
X03369*
Y03349*
X03345*
X03293Y02271D02*
Y02311D01*
X03333*
Y02271*
X03293*
X03301Y02279D02*
Y02303D01*
X03325*
Y02279*
X03301*
X03267Y03128D02*
Y03168D01*
X03307*
Y03128*
X03267*
X03275Y03136D02*
Y0316D01*
X03299*
Y03136*
X03275*
X03397Y03195D02*
Y03235D01*
X03437*
Y03195*
X03397*
X03405Y03203D02*
Y03227D01*
X03429*
Y03203*
X03405*
X03424Y03132D02*
Y03172D01*
X03464*
Y03132*
X03424*
X03432Y0314D02*
Y03164D01*
X03456*
Y0314*
X03432*
X0333Y03132D02*
Y03172D01*
X0337*
Y03132*
X0333*
X03338Y0314D02*
Y03164D01*
X03362*
Y0314*
X03338*
X02761Y02737D02*
Y02777D01*
X02801*
Y02737*
X02761*
X02769Y02745D02*
Y02769D01*
X02793*
Y02745*
X02769*
X03124Y02908D02*
Y02948D01*
X03164*
Y02908*
X03124*
X03132Y02916D02*
Y0294D01*
X03156*
Y02916*
X03132*
X03122Y03037D02*
Y03077D01*
X03162*
Y03037*
X03122*
X0313Y03045D02*
Y03069D01*
X03154*
Y03045*
X0313*
X03173Y03164D02*
Y03204D01*
X03213*
Y03164*
X03173*
X03181Y03172D02*
Y03196D01*
X03205*
Y03172*
X03181*
X03287Y02842D02*
Y02882D01*
X03327*
Y02842*
X03287*
X03295Y0285D02*
Y02874D01*
X03319*
Y0285*
X03295*
X03365Y02755D02*
Y02795D01*
X03405*
Y02755*
X03365*
X03373Y02763D02*
Y02787D01*
X03397*
Y02763*
X03373*
X03239Y02755D02*
Y02795D01*
X03279*
Y02755*
X03239*
X03247Y02763D02*
Y02787D01*
X03271*
Y02763*
X03247*
X03476Y02897D02*
Y02937D01*
X03516*
Y02897*
X03476*
X03484Y02905D02*
Y02929D01*
X03508*
Y02905*
X03484*
X03348Y0212D02*
Y0216D01*
X03388*
Y0212*
X03348*
X03356Y02128D02*
Y02152D01*
X0338*
Y02128*
X03356*
X03348Y02195D02*
Y02235D01*
X03388*
Y02195*
X03348*
X03356Y02203D02*
Y02227D01*
X0338*
Y02203*
X03356*
X03592Y02338D02*
Y02378D01*
X03632*
Y02338*
X03592*
X036Y02346D02*
Y0237D01*
X03624*
Y02346*
X036*
X03397Y03326D02*
Y03366D01*
X03437*
Y03326*
X03397*
X03405Y03334D02*
Y03358D01*
X03429*
Y03334*
X03405*
G54D138*
X04669Y018D02*
D01*
X04669Y01802*
X04669Y01803*
X04669Y01805*
X04669Y01806*
X04668Y01807*
X04668Y01809*
X04667Y0181*
X04666Y01811*
X04666Y01812*
X04665Y01813*
X04664Y01814*
X04663Y01815*
X04662Y01816*
X04661Y01817*
X04659Y01818*
X04658Y01818*
X04657Y01819*
X04656Y01819*
X04654Y0182*
X04653Y0182*
X04651Y0182*
X0465Y0182*
X04649*
X04647Y0182*
X04646Y0182*
X04644Y0182*
X04643Y01819*
X04642Y01819*
X04641Y01818*
X04639Y01818*
X04638Y01817*
X04637Y01816*
X04636Y01815*
X04635Y01814*
X04634Y01813*
X04633Y01812*
X04632Y01811*
X04632Y0181*
X04631Y01809*
X04631Y01807*
X0463Y01806*
X0463Y01805*
X0463Y01803*
X04629Y01802*
X04629Y018*
X04629Y01799*
X0463Y01798*
X0463Y01796*
X0463Y01795*
X04631Y01794*
X04631Y01792*
X04632Y01791*
X04632Y0179*
X04633Y01789*
X04634Y01788*
X04635Y01787*
X04636Y01786*
X04637Y01785*
X04638Y01784*
X04639Y01783*
X04641Y01782*
X04642Y01782*
X04643Y01781*
X04644Y01781*
X04646Y01781*
X04647Y01781*
X04649Y0178*
X0465*
X04651Y01781*
X04653Y01781*
X04654Y01781*
X04656Y01781*
X04657Y01782*
X04658Y01782*
X04659Y01783*
X04661Y01784*
X04662Y01785*
X04663Y01786*
X04664Y01787*
X04665Y01788*
X04666Y01789*
X04666Y0179*
X04667Y01791*
X04668Y01792*
X04668Y01794*
X04669Y01795*
X04669Y01796*
X04669Y01798*
X04669Y01799*
X04669Y018*
X04378D02*
D01*
X04378Y01802*
X04378Y01803*
X04378Y01805*
X04377Y01806*
X04377Y01807*
X04376Y01809*
X04376Y0181*
X04375Y01811*
X04374Y01812*
X04373Y01813*
X04372Y01814*
X04371Y01815*
X0437Y01816*
X04369Y01817*
X04368Y01818*
X04367Y01818*
X04365Y01819*
X04364Y01819*
X04363Y0182*
X04361Y0182*
X0436Y0182*
X04359Y0182*
X04357*
X04356Y0182*
X04355Y0182*
X04353Y0182*
X04352Y01819*
X04351Y01819*
X04349Y01818*
X04348Y01818*
X04347Y01817*
X04346Y01816*
X04345Y01815*
X04344Y01814*
X04343Y01813*
X04342Y01812*
X04341Y01811*
X0434Y0181*
X0434Y01809*
X04339Y01807*
X04339Y01806*
X04338Y01805*
X04338Y01803*
X04338Y01802*
X04338Y018*
X04338Y01799*
X04338Y01798*
X04338Y01796*
X04339Y01795*
X04339Y01794*
X0434Y01792*
X0434Y01791*
X04341Y0179*
X04342Y01789*
X04343Y01788*
X04344Y01787*
X04345Y01786*
X04346Y01785*
X04347Y01784*
X04348Y01783*
X04349Y01782*
X04351Y01782*
X04352Y01781*
X04353Y01781*
X04355Y01781*
X04356Y01781*
X04357Y0178*
X04359*
X0436Y01781*
X04361Y01781*
X04363Y01781*
X04364Y01781*
X04365Y01782*
X04367Y01782*
X04368Y01783*
X04369Y01784*
X0437Y01785*
X04371Y01786*
X04372Y01787*
X04373Y01788*
X04374Y01789*
X04375Y0179*
X04376Y01791*
X04376Y01792*
X04377Y01794*
X04377Y01795*
X04378Y01796*
X04378Y01798*
X04378Y01799*
X04378Y018*
X03491Y02723D02*
D01*
X0349Y02724*
X0349Y02726*
X0349Y02727*
X0349Y02728*
X03489Y0273*
X03489Y02731*
X03488Y02732*
X03487Y02734*
X03487Y02735*
X03486Y02736*
X03485Y02737*
X03484Y02738*
X03483Y02739*
X03482Y0274*
X03481Y0274*
X03479Y02741*
X03478Y02741*
X03477Y02742*
X03475Y02742*
X03474Y02743*
X03473Y02743*
X03471Y02743*
X0347*
X03468Y02743*
X03467Y02743*
X03466Y02742*
X03464Y02742*
X03463Y02741*
X03462Y02741*
X03461Y0274*
X03459Y0274*
X03458Y02739*
X03457Y02738*
X03456Y02737*
X03455Y02736*
X03454Y02735*
X03454Y02734*
X03453Y02732*
X03452Y02731*
X03452Y0273*
X03451Y02728*
X03451Y02727*
X03451Y02726*
X03451Y02724*
X03451Y02723*
X03451Y02722*
X03451Y0272*
X03451Y02719*
X03451Y02717*
X03452Y02716*
X03452Y02715*
X03453Y02714*
X03454Y02712*
X03454Y02711*
X03455Y0271*
X03456Y02709*
X03457Y02708*
X03458Y02707*
X03459Y02706*
X03461Y02706*
X03462Y02705*
X03463Y02704*
X03464Y02704*
X03466Y02704*
X03467Y02703*
X03468Y02703*
X0347Y02703*
X03471*
X03473Y02703*
X03474Y02703*
X03475Y02704*
X03477Y02704*
X03478Y02704*
X03479Y02705*
X03481Y02706*
X03482Y02706*
X03483Y02707*
X03484Y02708*
X03485Y02709*
X03486Y0271*
X03487Y02711*
X03487Y02712*
X03488Y02714*
X03489Y02715*
X03489Y02716*
X0349Y02717*
X0349Y02719*
X0349Y0272*
X0349Y02722*
X03491Y02723*
G54D139*
X03483Y02723D02*
D01*
X03482Y02724*
X03482Y02725*
X03482Y02725*
X03482Y02726*
X03482Y02727*
X03481Y02728*
X03481Y02729*
X03481Y02729*
X0348Y0273*
X0348Y02731*
X03479Y02731*
X03479Y02732*
X03478Y02732*
X03477Y02733*
X03477Y02733*
X03476Y02734*
X03475Y02734*
X03474Y02734*
X03473Y02735*
X03473Y02735*
X03472Y02735*
X03471Y02735*
X0347*
X03469Y02735*
X03468Y02735*
X03468Y02735*
X03467Y02734*
X03466Y02734*
X03465Y02734*
X03465Y02733*
X03464Y02733*
X03463Y02732*
X03462Y02732*
X03462Y02731*
X03461Y02731*
X03461Y0273*
X0346Y02729*
X0346Y02729*
X0346Y02728*
X03459Y02727*
X03459Y02726*
X03459Y02725*
X03459Y02725*
X03459Y02724*
X03459Y02723*
X03459Y02722*
X03459Y02721*
X03459Y0272*
X03459Y0272*
X03459Y02719*
X0346Y02718*
X0346Y02717*
X0346Y02717*
X03461Y02716*
X03461Y02715*
X03462Y02715*
X03462Y02714*
X03463Y02713*
X03464Y02713*
X03465Y02713*
X03465Y02712*
X03466Y02712*
X03467Y02712*
X03468Y02711*
X03468Y02711*
X03469Y02711*
X0347Y02711*
X03471*
X03472Y02711*
X03473Y02711*
X03473Y02711*
X03474Y02712*
X03475Y02712*
X03476Y02712*
X03477Y02713*
X03477Y02713*
X03478Y02713*
X03479Y02714*
X03479Y02715*
X0348Y02715*
X0348Y02716*
X03481Y02717*
X03481Y02717*
X03481Y02718*
X03482Y02719*
X03482Y0272*
X03482Y0272*
X03482Y02721*
X03482Y02722*
X03483Y02723*
M02*