%FSTAX23Y23*%
%MOIN*%
%SFA1B1*%

%IPPOS*%
%AMD13*
4,1,8,0.027600,0.005500,-0.027600,0.005500,-0.028900,0.004100,-0.028900,-0.004100,-0.027600,-0.005500,0.027600,-0.005500,0.028900,-0.004100,0.028900,0.004100,0.027600,0.005500,0.0*
1,1,0.002756,0.027600,0.004100*
1,1,0.002756,-0.027600,0.004100*
1,1,0.002756,-0.027600,-0.004100*
1,1,0.002756,0.027600,-0.004100*
%
%AMD22*
4,1,8,-0.006900,0.007100,-0.006900,-0.007100,-0.005200,-0.008900,0.005200,-0.008900,0.006900,-0.007100,0.006900,0.007100,0.005200,0.008900,-0.005200,0.008900,-0.006900,0.007100,0.0*
1,1,0.003444,-0.005200,0.007100*
1,1,0.003444,-0.005200,-0.007100*
1,1,0.003444,0.005200,-0.007100*
1,1,0.003444,0.005200,0.007100*
%
%AMD23*
4,1,8,0.007100,0.006900,-0.007100,0.006900,-0.008900,0.005200,-0.008900,-0.005200,-0.007100,-0.006900,0.007100,-0.006900,0.008900,-0.005200,0.008900,0.005200,0.007100,0.006900,0.0*
1,1,0.003444,0.007100,0.005200*
1,1,0.003444,-0.007100,0.005200*
1,1,0.003444,-0.007100,-0.005200*
1,1,0.003444,0.007100,-0.005200*
%
%AMD24*
4,1,8,0.005100,-0.015800,0.005100,0.015800,0.004800,0.016100,-0.004800,0.016100,-0.005100,0.015800,-0.005100,-0.015800,-0.004800,-0.016100,0.004800,-0.016100,0.005100,-0.015800,0.0*
1,1,0.000716,0.004800,-0.015800*
1,1,0.000716,0.004800,0.015800*
1,1,0.000716,-0.004800,0.015800*
1,1,0.000716,-0.004800,-0.015800*
%
%AMD25*
4,1,8,0.005100,-0.016200,0.005100,0.016200,0.004800,0.016500,-0.004800,0.016500,-0.005100,0.016200,-0.005100,-0.016200,-0.004800,-0.016500,0.004800,-0.016500,0.005100,-0.016200,0.0*
1,1,0.000716,0.004800,-0.016200*
1,1,0.000716,0.004800,0.016200*
1,1,0.000716,-0.004800,0.016200*
1,1,0.000716,-0.004800,-0.016200*
%
%AMD26*
4,1,8,0.015800,0.005100,-0.015800,0.005100,-0.016100,0.004800,-0.016100,-0.004800,-0.015800,-0.005100,0.015800,-0.005100,0.016100,-0.004800,0.016100,0.004800,0.015800,0.005100,0.0*
1,1,0.000716,0.015800,0.004800*
1,1,0.000716,-0.015800,0.004800*
1,1,0.000716,-0.015800,-0.004800*
1,1,0.000716,0.015800,-0.004800*
%
%ADD10C,0.020000*%
%ADD11R,0.041339X0.062992*%
%ADD12R,0.011811X0.031496*%
G04~CAMADD=13~8~0.0~0.0~578.7~110.2~13.8~0.0~15~0.0~0.0~0.0~0.0~0~0.0~0.0~0.0~0.0~0~0.0~0.0~0.0~0.0~578.7~110.2*
%ADD13D13*%
%ADD14R,0.033465X0.037402*%
%ADD15R,0.066929X0.045276*%
%ADD16R,0.039370X0.035433*%
%ADD17R,0.011811X0.027559*%
%ADD18R,0.039370X0.027559*%
%ADD19R,0.019685X0.023622*%
%ADD20R,0.051181X0.055118*%
%ADD21R,0.212598X0.212598*%
G04~CAMADD=22~8~0.0~0.0~177.2~137.8~17.2~0.0~15~0.0~0.0~0.0~0.0~0~0.0~0.0~0.0~0.0~0~0.0~0.0~0.0~90.0~138.0~178.0*
%ADD22D22*%
G04~CAMADD=23~8~0.0~0.0~177.2~137.8~17.2~0.0~15~0.0~0.0~0.0~0.0~0~0.0~0.0~0.0~0.0~0~0.0~0.0~0.0~0.0~177.2~137.8*
%ADD23D23*%
G04~CAMADD=24~8~0.0~0.0~322.8~102.4~3.6~0.0~15~0.0~0.0~0.0~0.0~0~0.0~0.0~0.0~0.0~0~0.0~0.0~0.0~270.0~102.0~322.0*
%ADD24D24*%
G04~CAMADD=25~8~0.0~0.0~330.7~102.4~3.6~0.0~15~0.0~0.0~0.0~0.0~0~0.0~0.0~0.0~0.0~0~0.0~0.0~0.0~270.0~102.0~330.0*
%ADD25D25*%
G04~CAMADD=26~8~0.0~0.0~322.8~102.4~3.6~0.0~15~0.0~0.0~0.0~0.0~0~0.0~0.0~0.0~0.0~0~0.0~0.0~0.0~0.0~322.8~102.4*
%ADD26D26*%
%ADD27R,0.106299X0.106299*%
%ADD28R,0.137795X0.092520*%
%ADD29R,0.035433X0.039370*%
%ADD30R,0.098425X0.045276*%
%ADD31R,0.096457X0.084646*%
%ADD32R,0.070866X0.051181*%
%ADD33R,0.037402X0.025591*%
%ADD34R,0.023622X0.025197*%
%ADD35R,0.023622X0.029528*%
%ADD36R,0.051181X0.070866*%
%ADD37R,0.037402X0.035433*%
%ADD38R,0.037402X0.033465*%
%ADD39R,0.102362X0.059055*%
%ADD40R,0.035433X0.031496*%
%ADD41O,0.059055X0.023622*%
%ADD42R,0.015748X0.027559*%
%ADD43C,0.015000*%
%ADD44C,0.030000*%
%ADD45C,0.040000*%
%ADD46C,0.050000*%
%ADD47C,0.010000*%
%ADD48C,0.045000*%
%ADD49C,0.025000*%
%ADD50C,0.012000*%
%ADD51C,0.070000*%
%ADD52C,0.060000*%
%ADD53O,0.031496X0.062992*%
%ADD54C,0.275591*%
%ADD55O,0.043307X0.082677*%
%ADD56O,0.043307X0.102362*%
%ADD57O,0.047240X0.078740*%
%ADD58O,0.055118X0.043307*%
%ADD59C,0.118110*%
%ADD60C,0.023000*%
%ADD61C,0.016000*%
%ADD62C,0.028000*%
%ADD63C,0.040000*%
%LNpcb_power_measurement_copper_signal_top-1*%
%LPD*%
G54D10*
X03024Y02568D02*
D01*
X03017Y02568*
X0301Y02567*
X03003Y02566*
X02996Y02565*
X02989Y02562*
X02983Y0256*
X02977Y02557*
X02971Y02553*
X02965Y02549*
X02959Y02545*
X02954Y0254*
X02949Y02535*
X02945Y0253*
X02941Y02524*
X02937Y02518*
X02934Y02512*
X02931Y02506*
X02928Y02499*
X02926Y02493*
X02925Y02486*
X02924Y02479*
X02924Y02472*
X02924Y02468*
X03259Y0273D02*
X03322D01*
X04502Y02099D02*
Y02122D01*
X0447Y02154D02*
X04502Y02122D01*
X04401Y02154D02*
X0447D01*
X0437Y02123D02*
X04401Y02154D01*
X0437Y0207D02*
Y02123D01*
X03823Y02547D02*
Y02574D01*
Y02547D02*
X03824Y02546D01*
X03024Y02568D02*
X03029D01*
X02924Y01995D02*
Y02468D01*
X04368Y02068D02*
X0437Y0207D01*
X03152Y02539D02*
X03191D01*
X03385Y0273D02*
X03385Y0273D01*
X03081Y02385D02*
X03082Y02385D01*
X03709Y02331D02*
Y02368D01*
X03708Y0233D02*
X03709Y02331D01*
X03567Y03272D02*
Y03285D01*
X03549Y03303D02*
X03567Y03285D01*
X03523Y03303D02*
X03549D01*
X03519Y03307D02*
X03523Y03303D01*
X03181Y02677D02*
D01*
Y02864*
X03082Y02385D02*
Y0245D01*
X03082Y0245D02*
X03082Y0245D01*
X03078Y02454D02*
X03082Y0245D01*
X03078Y02454D02*
Y02518D01*
X03073Y02522D02*
X03078Y02518D01*
X03037Y02385D02*
X03081D01*
X03037Y02385D02*
X03037Y02385D01*
X03037Y0245D02*
X03037Y0245D01*
X03082*
X03082Y0245*
X0303Y02522D02*
X03073D01*
X03345Y02291D02*
X03347Y02293D01*
X03271Y02291D02*
X03345D01*
X03322Y0273D02*
X03385D01*
X03259D02*
D01*
X03193Y03183D02*
Y03184D01*
X0318Y03169D02*
X03193Y03183D01*
X0318Y0312D02*
Y03169D01*
X0318Y0312D02*
X0318Y0312D01*
X0318Y03057D02*
Y0312D01*
X02781Y02797D02*
Y02798D01*
X02779Y028D02*
X02781Y02798D01*
X02726Y028D02*
X02779D01*
X02723Y02803D02*
X02726Y028D01*
X02781Y02757D02*
D01*
Y02797*
X03144Y02928D02*
X03144Y02927D01*
X0318*
X03181Y02927*
X03142Y03057D02*
X0318D01*
X03194Y03184D02*
X03235D01*
X03193Y03184D02*
X03194Y03184D01*
X03235D02*
X03236Y03185D01*
X03307Y02862D02*
X03351D01*
X03385Y02775D02*
X03385Y02775D01*
Y0273D02*
Y02775D01*
X03259Y0273D02*
Y02775D01*
X03136Y02522D02*
Y02524D01*
X03152Y02539*
X03259Y02677D02*
D01*
Y02596D02*
Y02677D01*
Y02596D02*
X03265Y0259D01*
G54D11*
X03369Y02034D03*
X03194D03*
X03619Y02035D03*
X03444D03*
G54D12*
X04607Y01734D03*
X04587D03*
X04568D03*
X04548D03*
X04528D03*
X04509D03*
X04489D03*
X04469D03*
X0445D03*
X0443D03*
X0441D03*
X0439D03*
X044Y01793D03*
X0442D03*
X0444D03*
X04459D03*
X04479D03*
X04499D03*
X04518D03*
X04538D03*
X04558D03*
X04577D03*
X04597D03*
X04617D03*
G54D13*
X03652Y02733D03*
Y02714D03*
Y02694D03*
Y02674D03*
Y02654D03*
X03821D03*
Y02674D03*
Y02694D03*
Y02714D03*
Y02733D03*
X03652Y02986D03*
Y02967D03*
Y02947D03*
Y02927D03*
Y02908D03*
X03821D03*
Y02927D03*
Y02947D03*
Y02967D03*
Y02986D03*
G54D14*
X03699Y03049D03*
X03648D03*
X03711Y02603D03*
X03762D03*
X04006Y02977D03*
X03955D03*
X04006Y02782D03*
X03955D03*
X04006Y02719D03*
X03955D03*
X03763Y02847D03*
X03712D03*
X04006Y0304D03*
X03955D03*
X03145Y02179D03*
X03196D03*
X03773Y02328D03*
X03824D03*
X03181Y02927D03*
X03232D03*
Y02864D03*
X03181D03*
X03232Y0299D03*
X03181D03*
X03507Y03185D03*
X03559D03*
X03236D03*
X03287D03*
G54D15*
X04085Y02687D03*
Y02812D03*
Y02945D03*
Y03069D03*
G54D16*
X03895Y02665D03*
Y02611D03*
Y02864D03*
Y02917D03*
Y02981D03*
Y03034D03*
Y02777D03*
Y02724D03*
X03513Y02776D03*
Y02723D03*
X03385Y0273D03*
Y02677D03*
X03322Y0273D03*
Y02677D03*
X03259D03*
Y0273D03*
G54D17*
X04597Y01946D03*
X04577D03*
X04558D03*
X04538D03*
X04518D03*
X04617D03*
X04459D03*
X04439D03*
X0442D03*
X044D03*
X0438D03*
X04479D03*
X0441Y01998D03*
X0443D03*
X04449D03*
X04469D03*
X04489D03*
X04528D03*
X04548D03*
X04567D03*
X04587D03*
X04508D03*
X03407Y03307D03*
X03486D03*
X03466D03*
X03446D03*
X03427D03*
X03387D03*
X03368D03*
X03348D03*
X03328D03*
X03309D03*
X03377Y03255D03*
X03279D03*
X03299D03*
X03318D03*
X03338D03*
X03358D03*
X03515D03*
X03417D03*
X03437D03*
X03456D03*
X03476D03*
X03496D03*
G54D18*
X04376Y01998D03*
X04621Y01998D03*
X03519Y03307D03*
X03275Y03307D03*
G54D19*
X03227Y02539D03*
X03192D03*
G54D20*
X03269Y0229D03*
X03206D03*
X03073Y02522D03*
X03136D03*
G54D21*
X03393Y0248D03*
G54D22*
X03285Y02608D03*
X03305D03*
X03324D03*
X03344D03*
X03364D03*
X03383D03*
X03403D03*
X03423D03*
X03442D03*
X03462D03*
X03482D03*
X03501D03*
Y02351D03*
X03482D03*
X03462D03*
X03442D03*
X03423D03*
X03403D03*
X03383D03*
X03364D03*
X03344D03*
X03324D03*
X03305D03*
X03285D03*
G54D23*
X03522Y02588D03*
Y02568D03*
Y02549D03*
Y02529D03*
Y02509D03*
Y0249D03*
Y0247D03*
Y0245D03*
Y02431D03*
Y02411D03*
Y02391D03*
Y02372D03*
X03265D03*
Y02391D03*
Y02411D03*
Y02431D03*
Y0245D03*
Y0247D03*
Y0249D03*
Y02509D03*
Y02529D03*
Y02549D03*
Y02568D03*
Y02588D03*
G54D24*
X03405Y0308D03*
X03425D03*
X03385D03*
X03366D03*
X03346D03*
X03385Y02926D03*
X03366D03*
X03346D03*
X03405D03*
X03425D03*
X03444D03*
G54D25*
X03444Y03081D03*
G54D26*
X03318Y03013D03*
Y03033D03*
Y03053D03*
Y02994D03*
Y02974D03*
Y02954D03*
X03472Y02994D03*
Y02974D03*
Y02954D03*
Y03013D03*
Y03033D03*
Y03053D03*
G54D27*
X03395Y03003D03*
G54D28*
X02594Y02485D03*
Y02249D03*
G54D29*
X03347Y02293D03*
X034D03*
X03655Y02328D03*
X03708D03*
X03082Y02384D03*
X03135D03*
X03082Y0245D03*
X03135D03*
X03404Y02862D03*
X03351D03*
X03233Y03057D03*
X0318D03*
Y0312D03*
X03233D03*
G54D30*
X02815Y02373D03*
Y02249D03*
X02511Y02868D03*
Y02992D03*
G54D31*
X02445Y02643D03*
X02615D03*
G54D32*
X0239Y0225D03*
Y02364D03*
G54D33*
X02615Y02763D03*
Y02803D03*
Y02842D03*
X02723D03*
Y02803D03*
Y02763D03*
G54D34*
X02687Y02905D03*
X02652D03*
G54D35*
X0283Y02842D03*
Y02797D03*
X02781D03*
Y02842D03*
G54D36*
X02423Y0278D03*
X02537D03*
G54D37*
X02727Y02564D03*
Y02688D03*
G54D38*
X03652Y02791D03*
Y02842D03*
X03537Y02889D03*
Y0294D03*
G54D39*
X02924Y0199D03*
Y01789D03*
G54D40*
X03253Y02178D03*
X03332Y02215D03*
Y0214D03*
X03482Y02178D03*
X03403Y0214D03*
Y02215D03*
G54D41*
X03823Y02396D03*
Y02446D03*
Y02496D03*
Y02546D03*
X03611Y02396D03*
Y02446D03*
Y02496D03*
Y02546D03*
G54D42*
X03444Y03183D03*
X03417D03*
X0335D03*
X03377D03*
G54D43*
X03662Y03091D02*
Y0313D01*
X03648Y03077D02*
X03662Y03091D01*
X03648Y03049D02*
Y03077D01*
X03647Y03048D02*
X03648Y03049D01*
X03526Y02974D02*
X03537Y02964D01*
Y0294D02*
Y02964D01*
X03472Y02974D02*
X03526D01*
X03537Y02865D02*
Y02889D01*
X03528Y02856D02*
X03537Y02865D01*
X03475Y02856D02*
X03528D01*
X0359Y02898D02*
X03619Y02927D01*
X0359Y0284D02*
Y02898D01*
X03562Y02812D02*
X0359Y0284D01*
X03557Y02994D02*
X03568Y02983D01*
Y02854D02*
Y02983D01*
X0355Y02836D02*
X03568Y02854D01*
X03615Y02875D02*
X03617Y02876D01*
Y02892*
X03632Y02908*
X03652*
X03562Y02756D02*
Y02812D01*
X03775Y02986D02*
Y03024D01*
X03733Y02733D02*
Y02756D01*
Y02725D02*
Y02733D01*
X03513Y02723D02*
X03524Y02713D01*
X03612Y02393D02*
X03613Y02394D01*
X03377Y02668D02*
X03383Y02661D01*
X03724Y02716D02*
X03733Y02725D01*
X03653Y02716D02*
X03724D01*
X03733Y02756D02*
Y02766D01*
X03663Y02756D02*
X03733D01*
X03652Y02767D02*
X03663Y02756D01*
X03652Y02767D02*
Y02791D01*
Y02842D02*
Y02865D01*
X03641Y02875D02*
X03652Y02865D01*
X03615Y02875D02*
X03641D01*
X03615Y0277D02*
Y02874D01*
X03615Y02875*
X03549Y02704D02*
X03615Y0277D01*
X03594Y02676D02*
X0363D01*
X03577Y02694D02*
X03594Y02676D01*
X0363D02*
X03632Y02674D01*
X03652*
X03549Y02669D02*
Y02704D01*
X03607Y03035D02*
X03619Y03048D01*
X03607Y0294D02*
Y03035D01*
Y0294D02*
X03619Y02927D01*
X03652*
X03752Y03048D02*
X03775Y03024D01*
X037Y03048D02*
X03752D01*
X03699Y03049D02*
X037Y03048D01*
X03588Y02589D02*
X03668D01*
X03549Y02669D02*
X03563Y02654D01*
X03824Y02804D02*
X03842Y02822D01*
X03771Y02804D02*
X03824D01*
X03733Y02766D02*
X03771Y02804D01*
X03764Y02846D02*
X03818D01*
X03763Y02847D02*
X03764Y02846D01*
X03818D02*
X03842Y02822D01*
X03896*
X03652Y02733D02*
X03733D01*
X03619Y03048D02*
X03647D01*
X03652Y02986D02*
X03775D01*
X03652Y02986D02*
X03652Y02986D01*
X03423Y03396D02*
X03446Y03373D01*
X03306Y03396D02*
X03423D01*
X03277Y03367D02*
X03306Y03396D01*
X03277Y03367D02*
X03305Y03339D01*
X0334*
X03524Y02641D02*
Y02713D01*
X03501Y02618D02*
X03524Y02641D01*
X02446Y02617D02*
X02514D01*
X02445Y02618D02*
X02446Y02617D01*
X02469Y02667D02*
X02514D01*
X02445Y02643D02*
X02469Y02667D01*
X02376Y02619D02*
X02444D01*
X02445Y02618*
X02376Y02667D02*
X02422D01*
X02423Y02666*
X03423Y02804D02*
X03475Y02856D01*
X03482Y02836D02*
X0355D01*
X03442Y02796D02*
X03482Y02836D01*
X03501Y03033D02*
X03503Y03032D01*
X03472Y03033D02*
X03501D01*
X03383Y02608D02*
Y02661D01*
X03442Y02608D02*
Y02796D01*
X03423Y02608D02*
Y02804D01*
X03463Y02609D02*
Y02656D01*
X03462Y02608D02*
X03463Y02609D01*
Y02656D02*
X03475Y02668D01*
X03423Y02608D02*
X03423Y02608D01*
X03403Y02608D02*
Y02641D01*
X03482Y02637D02*
X03492Y02647D01*
X03482Y02608D02*
Y02637D01*
X03563Y02654D02*
X03652D01*
X03513Y02723D02*
X03513Y02723D01*
X03526Y02771D02*
X03526Y0277D01*
X03501Y02608D02*
Y02618D01*
X03377Y02668D02*
X03385Y02677D01*
X03711Y02603D02*
Y02678D01*
X03548Y02613D02*
X03702D01*
X03711Y02603*
Y02603D02*
Y02603D01*
X03568Y02568D02*
X03588Y02589D01*
X03522Y02568D02*
X03568D01*
X03711Y02798D02*
X03711Y02799D01*
Y02846*
X03712Y02847*
X03772Y02654D02*
X03821D01*
X03762Y02644D02*
X03772Y02654D01*
X03762Y02603D02*
Y02644D01*
X03695Y02694D02*
X03711Y02678D01*
X03652Y02694D02*
X03695D01*
X03712Y02847D02*
Y02928D01*
X03693Y02947D02*
X03712Y02928D01*
X03652Y02947D02*
X03693D01*
X03472Y02994D02*
X03557D01*
X03759Y02927D02*
X03821D01*
X03719Y02967D02*
X03759Y02927D01*
X03652Y02967D02*
X03719D01*
X03923Y02947D02*
X03987Y02884D01*
X04548Y01765D02*
X04558Y01774D01*
X0445Y01764D02*
X0445Y01765D01*
X03922Y02918D02*
X03939Y02902D01*
Y02885D02*
Y02902D01*
X03896Y02918D02*
X03922D01*
X03821Y02947D02*
X03923D01*
X03758Y02694D02*
X0382D01*
X03758Y02695D02*
X03758Y02694D01*
X03512Y02777D02*
Y02811D01*
X03135Y0245D02*
X03137Y02452D01*
X03821Y02674D02*
X03895D01*
X03931Y02664D02*
X03932Y02663D01*
X03896Y02664D02*
X03931D01*
X03895Y02665D02*
X03896Y02664D01*
X03884Y02927D02*
X03895Y02917D01*
Y02917D02*
X03896Y02918D01*
X03895Y02577D02*
Y02611D01*
X03895Y02822D02*
X03896Y02822D01*
X03895Y02822D02*
Y02863D01*
X03895Y02864D02*
X03895Y02863D01*
X03867Y02724D02*
X03895D01*
X03857Y02733D02*
X03867Y02724D01*
X03821Y02733D02*
X03857D01*
X0387Y02981D02*
X03895D01*
X03856Y02967D02*
X0387Y02981D01*
X03821Y02967D02*
X03856D01*
X03855Y03022D02*
X03867Y03034D01*
X03855Y02996D02*
Y03022D01*
X03845Y02986D02*
X03855Y02996D01*
X03867Y03034D02*
X03895D01*
X03821Y02986D02*
X03845D01*
X04084Y02779D02*
X04085Y02812D01*
X04076Y02771D02*
X04084Y02779D01*
X04017Y02771D02*
X04076D01*
Y0273D02*
X04085Y02721D01*
X04017Y0273D02*
X04076D01*
X04084Y03039D02*
Y03068D01*
X04073Y03029D02*
X04084Y03039D01*
X04017Y03029D02*
X04073D01*
X04006Y0304D02*
X04017Y03029D01*
X04084Y03068D02*
X04085Y03069D01*
X04084Y02946D02*
Y02976D01*
X04073Y02987D02*
X04084Y02976D01*
X04016Y02987D02*
X04073D01*
X04006Y02977D02*
X04016Y02987D01*
X04084Y02946D02*
X04085Y02945D01*
X03895Y02981D02*
X03899Y02977D01*
X03955*
X03952Y03037D02*
X03955Y0304D01*
X03897Y03037D02*
X03952D01*
X03895Y03034D02*
X03897Y03037D01*
X03857Y02875D02*
Y02896D01*
X03845Y02908D02*
X03857Y02896D01*
X03821Y02908D02*
X03845D01*
X03867Y02864D02*
X03895D01*
X03857Y02875D02*
X03867Y02864D01*
X0387Y02611D02*
X03895D01*
X03857Y02625D02*
X0387Y02611D01*
X03857Y02625D02*
Y02644D01*
X03821Y02927D02*
X03884D01*
X03846Y02654D02*
X03857Y02644D01*
X03821Y02654D02*
X03846D01*
X03781Y02777D02*
X03895D01*
X03765Y02761D02*
X03781Y02777D01*
X03765Y02729D02*
Y02761D01*
Y02729D02*
X03779Y02714D01*
X03821*
X03953Y02779D02*
X03955Y02782D01*
X03897Y02779D02*
X03953D01*
X03895Y02777D02*
X03897Y02779D01*
X03952Y02721D02*
X03955Y02719D01*
X03897Y02721D02*
X03952D01*
X03895Y02724D02*
X03897Y02721D01*
X04085Y02687D02*
Y02721D01*
X03029Y02568D02*
X03265D01*
X0443Y02087D02*
X04446Y02103D01*
X0443Y01999D02*
Y02087D01*
X0441Y01734D02*
Y01765D01*
X04568Y01734D02*
Y01751D01*
X04509D02*
X04509Y0175D01*
Y01734D02*
Y0175D01*
Y01734D02*
X04509Y01734D01*
X04469Y0175D02*
X0447Y01751D01*
X04469Y01734D02*
Y0175D01*
X04469Y01734D02*
X04469Y01734D01*
X04489Y01765D02*
X04489Y01765D01*
Y01734D02*
Y01765D01*
X0443Y01751D02*
X0443Y0175D01*
X0445Y01734D02*
Y01764D01*
X0443Y01734D02*
Y0175D01*
Y01734D02*
X0443Y01734D01*
X0445Y01765D02*
X0445Y01764D01*
X04588Y01761D02*
Y01763D01*
Y01761D02*
X04588Y01761D01*
Y01744D02*
Y01761D01*
X04588Y01744D02*
X04588Y01744D01*
X04588Y01734D02*
Y01744D01*
X04587Y01734D02*
X04588Y01734D01*
X04528Y0176D02*
X04529Y01761D01*
X04528Y01734D02*
Y0176D01*
X04528Y01734D02*
X04528Y01734D01*
X04358Y01749D02*
Y018D01*
Y01749D02*
X04374Y01734D01*
X0439*
X04649Y01753D02*
Y018D01*
X0463Y01734D02*
X04649Y01753D01*
X04607Y01734D02*
X0463D01*
X04548Y01734D02*
Y01765D01*
X04548Y01734D02*
X04548Y01734D01*
X04558Y01774D02*
Y01793D01*
X0445Y01734D02*
X0445Y01734D01*
X0445Y01765D02*
X04459Y01774D01*
X0445Y01765D02*
X0445D01*
X04489Y01734D02*
X04489Y01734D01*
X04528Y02041D02*
X04528Y02042D01*
X04548Y01998D02*
Y02071D01*
X04567Y01998D02*
Y02087D01*
X04645Y01796D02*
X04649Y018D01*
X04459Y01774D02*
Y01793D01*
X04362Y01796D02*
X04399D01*
X04358Y018D02*
X04362Y01796D01*
X04618D02*
X04645D01*
X04469Y01998D02*
Y02043D01*
X04469Y01998D02*
X04469Y01998D01*
X04489Y01998D02*
Y02057D01*
X04489Y01998D02*
X04489Y01998D01*
Y02057D02*
X04489Y02058D01*
X04597Y01793D02*
Y01946D01*
X04577Y01793D02*
Y01946D01*
X04538Y01793D02*
Y01946D01*
X04518Y01793D02*
Y01946D01*
X04499Y01793D02*
Y01872D01*
X04479Y01793D02*
Y01861D01*
X0444Y01793D02*
Y0187D01*
X0442Y01793D02*
Y0186D01*
X04459Y01881D02*
Y01946D01*
Y01881D02*
X04479Y01861D01*
X04479Y01892D02*
Y01946D01*
Y01892D02*
X04499Y01872D01*
X0442Y0189D02*
Y01946D01*
Y0189D02*
X0444Y0187D01*
X03482Y02178D02*
Y02351D01*
X03607Y02034D02*
X03619Y02046D01*
Y02145*
X03586Y02178D02*
X03619Y02145D01*
X03482Y02178D02*
X03586D01*
X03371Y02032D02*
X03407D01*
X03369Y02034D02*
X03371Y02032D01*
X03439Y02023D02*
Y02034D01*
X03437Y02032D02*
X03439Y02034D01*
X03407Y02032D02*
X03437D01*
X03482Y02178D02*
X03482D01*
X03194Y02034D02*
X03195Y02035D01*
Y02177*
X03196Y02179*
X03375Y02258D02*
X03391D01*
X034Y02267*
Y02293*
X03374Y02257D02*
X03375Y02258D01*
X0441Y01998D02*
Y02086D01*
X04394Y02102D02*
X0441Y02086D01*
X04502Y02099D02*
X0452D01*
X04481D02*
X04502D01*
X04328Y0199D02*
X0433Y01992D01*
X04371*
X04376Y01998*
X04652Y01991D02*
X04669Y01974D01*
X04627Y01991D02*
X04652D01*
X04669Y01962D02*
Y01974D01*
X04621Y01998D02*
X04627Y01991D01*
X04617Y01946D02*
Y01994D01*
X04621Y01998*
X04617Y01946D02*
X04617Y01946D01*
X04528Y01998D02*
Y02041D01*
X04528Y01998D02*
X04528Y01998D01*
X04508Y02073D02*
X04509Y02074D01*
X04508Y01998D02*
Y02073D01*
X04508Y01998D02*
X04508Y01998D01*
X0452Y02099D02*
X04548Y02071D01*
X04548Y01998D02*
X04548Y01998D01*
X04558Y01946D02*
Y01967D01*
X04548Y01977D02*
X04558Y01967D01*
X04548Y01977D02*
Y01997D01*
X04449Y01976D02*
Y01998D01*
X04439Y01966D02*
X04449Y01976D01*
X04439Y01946D02*
Y01966D01*
X04548Y01998D02*
X04548Y01997D01*
X04449Y01998D02*
Y02067D01*
X04587Y01998D02*
Y02087D01*
X04449Y02067D02*
X04481Y02099D01*
X0438Y01946D02*
Y01994D01*
X04376Y01998D02*
X0438Y01994D01*
X044Y0188D02*
X0442Y0186D01*
X044Y0188D02*
Y01946D01*
X04394Y02102D02*
Y02103D01*
X04328Y01978D02*
Y0199D01*
X04552Y02103D02*
X04567Y02087D01*
X04587Y02087D02*
X04603Y02103D01*
X04668Y01978D02*
Y0199D01*
X034Y02293D02*
X03403Y02295D01*
X03237Y02529D02*
X03265D01*
X03227Y02539D02*
X03237Y02529D01*
X03227Y02539D02*
X03236Y02549D01*
X03265*
X03346Y03113D02*
X03353Y0312D01*
X03233D02*
X03353D01*
X03357Y03361D02*
X03368Y0335D01*
Y03307D02*
Y0335D01*
X03624Y02328D02*
X03655D01*
X03612Y02339D02*
X03624Y02328D01*
X03754Y02421D02*
X03779Y02395D01*
X03571Y02421D02*
X03754D01*
X03541Y0245D02*
X03571Y02421D01*
X03578Y02446D02*
X03611D01*
X03554Y0247D02*
X03578Y02446D01*
X03522Y0247D02*
X03554D01*
X03612Y02339D02*
Y02358D01*
X03462Y02329D02*
Y02351D01*
X03452Y02319D02*
X03462Y02329D01*
X03444Y03128D02*
Y03152D01*
X03425Y03109D02*
X03444Y03128D01*
X03425Y0308D02*
Y03109D01*
X03485Y02954D02*
X03496Y02943D01*
Y02917D02*
Y02943D01*
X03472Y02954D02*
X03485D01*
X03116Y03018D02*
Y03187D01*
Y03018D02*
X03144Y0299D01*
X03116Y03187D02*
X03145Y03217D01*
X03244Y03301D02*
X03269D01*
X03227Y03284D02*
X03244Y03301D01*
X03227Y03272D02*
Y03284D01*
X03269Y03301D02*
X03275Y03307D01*
X03279Y03303*
Y03255D02*
Y03303D01*
X03515Y03303D02*
X03519Y03307D01*
X03515Y03255D02*
Y03303D01*
X0334Y03339D02*
X03348Y03331D01*
Y03307D02*
Y03331D01*
X03446Y03307D02*
Y03373D01*
X03348Y03285D02*
Y03307D01*
X03387Y03333D02*
X034Y03346D01*
X03387Y03307D02*
Y03333D01*
X03287Y03148D02*
Y03185D01*
X034Y03346D02*
X03417D01*
X03445Y03223D02*
X03499D01*
X03437Y03232D02*
X03445Y03223D01*
X03437Y03232D02*
Y03255D01*
X03417Y03183D02*
Y03255D01*
X03377Y03183D02*
Y03255D01*
X03446Y03286D02*
X03456Y03276D01*
Y03255D02*
Y03276D01*
X03446Y03286D02*
Y03307D01*
X03338Y03275D02*
X03348Y03285D01*
X03338Y03255D02*
Y03275D01*
Y03235D02*
Y03255D01*
X0332Y03217D02*
X03338Y03235D01*
X03145Y03217D02*
X0332D01*
X03237Y03053D02*
X03318D01*
X03346Y0308D02*
Y03113D01*
X03353Y0312D02*
X03366Y03107D01*
Y0308D02*
Y03107D01*
Y0308D02*
D01*
X03567Y03193D02*
Y03272D01*
X03559Y03185D02*
X03567Y03193D01*
X03444Y03152D02*
Y03183D01*
X0335Y03152D02*
D01*
Y03183*
X03277Y03033D02*
X03318D01*
X03265Y03021D02*
X03277Y03033D01*
X03265Y02999D02*
Y03021D01*
X03257Y0299D02*
X03265Y02999D01*
X03232Y0299D02*
X03257D01*
X03472Y02994D02*
X03472Y02994D01*
X03368Y02215D02*
X03403D01*
X03332D02*
X03368D01*
Y0214D02*
X03403D01*
X03332D02*
X03368D01*
X03332D02*
D01*
X03612Y02358D02*
Y02393D01*
X03611Y02396D02*
X03613Y02394D01*
X03571Y02288D02*
X03852D01*
X03555Y02305D02*
X03571Y02288D01*
X03555Y02305D02*
Y02398D01*
X03542Y02411D02*
X03555Y02398D01*
X03742Y02396D02*
X03772Y02366D01*
Y0233D02*
Y02366D01*
X03611Y02396D02*
X03742D01*
X03779Y02395D02*
X03823D01*
X03522Y02411D02*
X03542D01*
X03868Y02304D02*
Y02433D01*
X03852Y02288D02*
X03868Y02304D01*
X03552Y02509D02*
X03564Y02521D01*
X03571Y02496D02*
X03611D01*
X03564Y0249D02*
X03571Y02496D01*
X03522Y0249D02*
X03564D01*
X03522Y02509D02*
X03552D01*
X03557Y02546D02*
X03611D01*
X0354Y02529D02*
X03557Y02546D01*
X03522Y02529D02*
X0354D01*
X03564Y02521D02*
X03719D01*
X03856Y02444D02*
X03868Y02433D01*
X03825Y02444D02*
X03856D01*
X03253Y02178D02*
X03253Y02178D01*
X03197Y02178D02*
X03253D01*
X03196Y02179D02*
X03197Y02178D01*
X03208Y0229D02*
Y024D01*
X03211Y02288D02*
Y0229D01*
X03196Y02179D02*
Y0228D01*
X03206Y0229*
X03208Y024D02*
X03239Y02431D01*
X03482Y02351D02*
X03482Y02351D01*
X02924Y0199D02*
X02927Y01994D01*
X03385Y03278D02*
X03397D01*
X03377Y03271D02*
X03385Y03278D01*
X03377Y03255D02*
Y03271D01*
X03397Y03278D02*
X03407Y03288D01*
Y03307*
X02652Y02775D02*
Y02905D01*
X02642Y02764D02*
X02652Y02775D01*
X02686Y02778D02*
Y02897D01*
Y02778D02*
X027Y02763D01*
X02723*
X03823Y0233D02*
Y02396D01*
Y02446D02*
X03825Y02444D01*
X03719Y02521D02*
X03744Y02496D01*
X03823*
X03522Y0245D02*
X03541D01*
X03403Y02295D02*
Y02351D01*
X03403Y02351*
X03239Y02431D02*
X03265D01*
X03135Y0245D02*
X03135Y0245D01*
Y02384D02*
X03135Y02384D01*
X03322Y02668D02*
X03324Y02666D01*
Y02608D02*
Y02666D01*
X03322Y02668D02*
Y02677D01*
X02615Y02764D02*
X02642D01*
X03405Y02855D02*
Y02926D01*
X03144Y0299D02*
X03181D01*
X03298Y03013D02*
X03318D01*
X03286Y03001D02*
X03298Y03013D01*
X03286Y02877D02*
Y03001D01*
X03272Y02864D02*
X03286Y02877D01*
X03232Y02864D02*
X03272D01*
X03232Y02927D02*
Y0299D01*
X03405Y0308D02*
Y03127D01*
X03417Y03139*
Y03183*
X03385Y0308D02*
Y03126D01*
X03377Y03134D02*
X03385Y03126D01*
X03377Y03134D02*
Y03183D01*
X03499Y03223D02*
X03507Y03214D01*
Y03185D02*
Y03214D01*
G54D44*
X03233Y03057D02*
Y0312D01*
X03471Y02723D02*
X03513D01*
X03145Y02179D02*
Y02226D01*
X03135Y02236D02*
X03145Y02226D01*
X03135Y02236D02*
Y02311D01*
D01*
Y02384D01*
X02511Y02992D02*
X02512Y02991D01*
X02614Y02643D02*
Y02762D01*
X03135Y02384D02*
Y0245D01*
X03135Y0245D02*
Y0252D01*
G54D45*
X03031Y03369D02*
X03275D01*
X03031D02*
Y03459D01*
Y03156D02*
Y03369D01*
X03322Y02677D02*
X03385D01*
X02975Y031D02*
X03031Y03156D01*
X02445Y02618D02*
Y02643D01*
Y0258D02*
Y02618D01*
X02392Y02316D02*
Y02527D01*
X02423Y02666D02*
X02445Y02643D01*
X02423Y02666D02*
Y0278D01*
X02446Y02782D02*
X02477D01*
X02392Y02527D02*
X02445Y0258D01*
X02945Y02677D02*
X03137D01*
X02937D02*
X02945D01*
X03181D02*
X03259D01*
X03141D02*
X03181D01*
X02399Y02868D02*
X02511D01*
X02376Y0289D02*
X02399Y02868D01*
X02376Y0289D02*
Y02969D01*
X03135Y0252D02*
X03136Y02522D01*
X03259Y02677D02*
X03322D01*
G54D46*
X02952Y03268D02*
Y03459D01*
X02675Y02991D02*
X02952Y03268D01*
X02512Y02991D02*
X02675D01*
X04176Y0219D02*
Y03127D01*
X04133Y03169D02*
X04176Y03127D01*
X04085Y03169D02*
X04133D01*
X04085Y03085D02*
Y03169D01*
X04176Y0219D02*
X04298Y02068D01*
X04085Y02595D02*
Y02671D01*
Y02111D02*
Y02595D01*
X04085Y02111D02*
X04201Y01995D01*
X04085Y02111D02*
X04085Y02111D01*
X04085Y02111D02*
Y02111D01*
X04201Y01995D02*
X04203D01*
X04298Y02068D02*
X04368D01*
X04085Y02933D02*
X04085Y0282D01*
X02815Y02556D02*
X02937Y02677D01*
X02815Y02373D02*
Y02556D01*
X02391Y02249D02*
X02593D01*
X0239Y0225D02*
X02391Y02249D01*
X02537Y02803D02*
Y02857D01*
G54D47*
X03318Y03053D02*
X03318Y03053D01*
X04085Y02812D02*
X04085Y0282D01*
X04006Y02782D02*
X04017Y02771D01*
X04006Y02719D02*
X04017Y0273D01*
X03233Y03057D02*
X03237Y03053D01*
X03403Y02215D02*
D01*
X03823Y02395D02*
X03823Y02396D01*
X03405Y02855D02*
X03406Y02854D01*
X03232Y0299D02*
D01*
X03377Y03183D02*
Y03183D01*
G54D48*
X02593Y02249D02*
X02815D01*
G54D49*
X02593Y02249D02*
X02599Y02255D01*
X02727Y02615D02*
X02831Y02719D01*
X02727Y02564D02*
Y02615D01*
X02831Y02719D02*
Y02796D01*
X02727Y02456D02*
Y02564D01*
X02599Y02328D02*
X02727Y02456D01*
X02599Y02255D02*
Y02328D01*
X02723Y02699D02*
Y02763D01*
Y02699D02*
X02723Y02698D01*
X02537Y02803D02*
X02615D01*
X02537Y0278D02*
Y02803D01*
X02511Y02868D02*
X02527D01*
X02537Y02857*
X02723Y02842D02*
X02781D01*
X0283*
X02615Y02763D02*
Y02764D01*
X02614Y02762D02*
X02615Y02763D01*
X0283Y02797D02*
X02831Y02796D01*
G54D50*
X03522Y0247D02*
X03523Y02469D01*
X03611Y02546D02*
X03611Y02546D01*
G54D51*
X02614Y02526D02*
Y02643D01*
G54D52*
X03662Y0313D03*
X03762D03*
X0371Y0325D03*
G54D53*
X04649Y018D03*
X04358D03*
G54D54*
X02461Y0188D03*
X04049Y01875D03*
Y03393D03*
X02461D03*
G54D55*
X04328Y01962D03*
X04669D03*
X03567Y03272D03*
X03227D03*
G54D56*
X04329Y02173D03*
X04669D03*
X03568Y03482D03*
X03228D03*
G54D57*
X02791Y03459D03*
X03114D03*
G54D58*
X03031Y03459D03*
X02874D03*
X02952D03*
G54D59*
X02975Y031D03*
X03918Y02111D03*
X02945Y02677D03*
X02376Y02969D03*
X04085Y02111D03*
Y03169D03*
G54D60*
X03615Y02875D03*
X03562Y02756D03*
X03577Y02694D03*
X03668Y02589D03*
X03549Y02669D03*
X03475Y02668D03*
X03776Y02987D03*
X03232Y03089D03*
X02514Y02617D03*
Y02667D03*
X02376Y02619D03*
Y02667D03*
X02477Y02782D03*
X02392Y02316D03*
X03503Y03032D03*
X03492Y02647D03*
X03548Y02613D03*
X03711Y02798D03*
X04085Y02595D03*
X03987Y02884D03*
X03939Y02885D03*
X03758Y02695D03*
X03512Y02812D03*
X03932Y02663D03*
X03895Y02577D03*
X03823Y02574D03*
X03896Y02822D03*
X03407Y02032D03*
X03374Y02257D03*
X03709Y02368D03*
X03452Y02319D03*
X03037Y02385D03*
Y0245D03*
X0303Y02522D03*
X03357Y03361D03*
X03313Y02291D03*
X03287Y03148D03*
X03417Y03215D03*
X03444Y03152D03*
X0335D03*
X02781Y02757D03*
X03144Y02928D03*
X03142Y03057D03*
X03193Y03184D03*
X03307Y02862D03*
X03385Y02775D03*
X03259D03*
X03496Y02917D03*
X03368Y0214D03*
Y02215D03*
X03612Y02358D03*
X03417Y03346D03*
G54D61*
X03403Y02641D03*
X04394Y02103D03*
X04568Y01751D03*
X0447D03*
X04489Y01765D03*
X0441Y01765D03*
X0443Y01751D03*
X04529Y01761D03*
X04549Y01765D03*
X0445Y01765D03*
X04509Y01751D03*
X04528Y02042D03*
X04588Y01763D03*
X04469Y02043D03*
X04489Y02058D03*
X04603Y02103D03*
X04509Y02074D03*
X04446Y02103D03*
X04552D03*
X03357Y02516D03*
X0343D03*
X0332D03*
X03319Y02443D03*
X03357D03*
X0343D03*
X03392D03*
X03466D03*
X0343Y02406D03*
Y02479D03*
X03357Y02556D03*
X0343Y02555D03*
X03466Y02516D03*
X03393D03*
X03357Y02479D03*
Y02406D03*
X0337Y03003D03*
X03395Y02978D03*
Y03028D03*
X0342Y03003D03*
X03395D03*
G54D62*
X03471Y02723D03*
G54D63*
X04203Y01995D03*
X03135Y02311D03*
M02*