%FSTAX23Y23*%
%MOIN*%
%SFA1B1*%

%IPPOS*%
%ADD119C,0.030000*%
%ADD120C,0.030000*%
%ADD121C,0.030000*%
%ADD122O,0.019685X0.051181*%
%ADD123C,0.157480*%
%ADD124C,0.157480*%
%ADD125C,0.157480*%
%ADD126C,0.157480*%
%ADD127O,0.023622X0.062992*%
%ADD128O,0.023622X0.082677*%
%ADD129O,0.027560X0.059060*%
%ADD130O,0.035440X0.027560*%
%ADD131C,0.078740*%
%ADD132C,0.015000*%
%ADD133C,0.020000*%
%ADD134C,0.010000*%
%ADD135C,0.030000*%
%ADD136C,0.008000*%
%LNpcb_power_measurement_pth_drill-1*%
%LPD*%
G54D119*
X03662Y0313D03*
G54D120*
X03762Y0313D03*
G54D121*
X0371Y0325D03*
G54D122*
X04649Y018D03*
X04358D03*
G54D123*
X02461Y0188D03*
G54D124*
X04049Y01875D03*
G54D125*
X04049Y03393D03*
G54D126*
X02461Y03393D03*
G54D127*
X04328Y01962D03*
X04669D03*
X03567Y03272D03*
X03227D03*
G54D128*
X04329Y02173D03*
X04669D03*
X03568Y03482D03*
X03228D03*
G54D129*
X02791Y03459D03*
X03114D03*
G54D130*
X03031Y03459D03*
X02874D03*
X02952D03*
G54D131*
X02975Y031D03*
X03918Y02111D03*
X02945Y02677D03*
X02376Y02969D03*
X04085Y02111D03*
Y03169D03*
G54D132*
X03615Y02875D03*
X03562Y02756D03*
X03577Y02694D03*
X03668Y02589D03*
X03549Y02669D03*
X03475Y02668D03*
X03776Y02987D03*
X03232Y03089D03*
X02514Y02617D03*
Y02667D03*
X02376Y02619D03*
Y02667D03*
X02477Y02782D03*
X02392Y02316D03*
X03503Y03032D03*
X03403Y02641D03*
X03492Y02647D03*
X03548Y02613D03*
X03711Y02798D03*
X04085Y02595D03*
X03987Y02884D03*
X03939Y02885D03*
X03758Y02695D03*
X03512Y02812D03*
X03932Y02663D03*
X03895Y02577D03*
X03823Y02574D03*
X03896Y02822D03*
X03407Y02032D03*
X03374Y02257D03*
X03709Y02368D03*
X03452Y02319D03*
X03037Y02385D03*
Y0245D03*
X0303Y02522D03*
X03357Y03361D03*
X03313Y02291D03*
X03287Y03148D03*
X03417Y03215D03*
X03444Y03152D03*
X0335D03*
X02781Y02757D03*
X03144Y02928D03*
X03142Y03057D03*
X03193Y03184D03*
X03307Y02862D03*
X03385Y02775D03*
X03259D03*
X03496Y02917D03*
X03368Y0214D03*
Y02215D03*
X03612Y02358D03*
X03417Y03346D03*
G54D133*
X03471Y02723D03*
G54D134*
X04394Y02103D03*
X04568Y01751D03*
X0447D03*
X04489Y01765D03*
X0441Y01765D03*
X0443Y01751D03*
X04529Y01761D03*
X04549Y01765D03*
X0445Y01765D03*
X04509Y01751D03*
X04528Y02042D03*
X04588Y01763D03*
X04469Y02043D03*
X04489Y02058D03*
X04603Y02103D03*
X04509Y02074D03*
X04446Y02103D03*
X04552D03*
G54D135*
X04203Y01995D03*
X03135Y02311D03*
G54D136*
X03357Y02516D03*
X0343D03*
X0332D03*
X03319Y02443D03*
X03357D03*
X0343D03*
X03392D03*
X03466D03*
X0343Y02406D03*
Y02479D03*
X03357Y02556D03*
X0343Y02555D03*
X03466Y02516D03*
X03393D03*
X03357Y02479D03*
Y02406D03*
X0337Y03003D03*
X03395Y02978D03*
Y03028D03*
X0342Y03003D03*
X03395D03*
M02*