%FSTAX23Y23*%
%MOIN*%
%SFA1B1*%

%IPPOS*%
%ADD114C,0.003937*%
%ADD117C,0.001968*%
%LNpcb_power_measurement_mechanical_15-1*%
%LPD*%
G54D114*
X03654Y03049D02*
X03692D01*
X03673Y0303D02*
Y03067D01*
X04085Y0273D02*
Y02769D01*
X04065Y0275D02*
X04104D01*
X03895Y02619D02*
Y02657D01*
X03876Y02638D02*
X03913D01*
X03895Y02872D02*
Y02909D01*
X03876Y02891D02*
X03913D01*
X04479Y02063D02*
X04498D01*
Y02082*
Y02063D02*
X04518D01*
X04498Y02043D02*
Y02063D01*
X03199Y02539D02*
X0322D01*
X0321Y02529D02*
Y0255D01*
X03218Y0229D02*
X03257D01*
X03238Y0227D02*
Y0231D01*
X03737Y02584D02*
Y02621D01*
X03718Y02603D02*
X03755D01*
X03895Y02988D02*
Y03026D01*
X03876Y03007D02*
X03913D01*
X03355Y02293D02*
X03392D01*
X03374Y02274D02*
Y02312D01*
X03895Y02732D02*
Y02769D01*
X03876Y02751D02*
X03913D01*
X02796Y02311D02*
X02835D01*
X02815Y02291D02*
Y02331D01*
X0251Y02643D02*
X0255D01*
X0253Y02624D02*
Y02663D01*
X0239Y02287D02*
Y02326D01*
X02371Y02307D02*
X0241D01*
X02669Y02783D02*
Y02822D01*
X02649Y02803D02*
X02688D01*
X0267Y02895D02*
Y02915D01*
X0266Y02905D02*
X0268D01*
X02809Y02868D02*
X02852D01*
X02809Y02771D02*
X02852D01*
Y02868*
X02809Y02771D02*
Y02868D01*
X0283Y02809D02*
Y0283D01*
X02819Y02819D02*
X02841D01*
X02759Y02771D02*
X02803D01*
X02759Y02868D02*
X02803D01*
X02759Y02771D02*
Y02868D01*
X02803Y02771D02*
Y02868D01*
X02781Y02809D02*
Y0283D01*
X0277Y02819D02*
X02792D01*
X0246Y0278D02*
X025D01*
X0248Y0276D02*
Y028D01*
X02727Y02607D02*
Y02646D01*
X02707Y02626D02*
X02747D01*
X02492Y0293D02*
X02531D01*
X02511Y0291D02*
Y02949D01*
X04085Y02987D02*
Y03027D01*
X04065Y03007D02*
X04104D01*
X03962Y02977D02*
X03999D01*
X03981Y02958D02*
Y02995D01*
X03962Y02782D02*
X03999D01*
X03981Y02763D02*
Y028D01*
X03962Y02719D02*
X03999D01*
X03981Y027D02*
Y02737D01*
X03652Y02798D02*
Y02835D01*
X03633Y02817D02*
X0367D01*
X03719Y02847D02*
X03756D01*
X03738Y02828D02*
Y02865D01*
X03962Y0304D02*
X03999D01*
X03981Y03021D02*
Y03058D01*
X03293Y02158D02*
Y02197D01*
X03273Y02178D02*
X03312D01*
X03442Y02158D02*
Y02197D01*
X03423Y02178D02*
X03462D01*
X03152Y02179D02*
X03189D01*
X03171Y0216D02*
Y02197D01*
X03663Y02328D02*
X037D01*
X03682Y02309D02*
Y02346D01*
X0378Y02328D02*
X03817D01*
X03799Y02309D02*
Y02346D01*
X03697Y02471D02*
X03737D01*
X03717Y02451D02*
Y02491D01*
X03513Y02731D02*
Y02768D01*
X03494Y0275D02*
X03532D01*
X03385Y02685D02*
Y02722D01*
X03367Y02703D02*
X03404D01*
X03322Y02685D02*
Y02722D01*
X03304Y02703D02*
X03341D01*
X03259Y02685D02*
Y02722D01*
X0324Y02703D02*
X03277D01*
X0309Y02384D02*
X03127D01*
X03109Y02365D02*
Y02403D01*
X0309Y0245D02*
X03127D01*
X03108Y02431D02*
Y02469D01*
X03085Y02522D02*
X03125D01*
X03105Y02502D02*
Y02541D01*
X03537Y02896D02*
Y02933D01*
X03518Y02915D02*
X03555D01*
X03359Y02862D02*
X03396D01*
X03377Y02843D02*
Y0288D01*
X03187Y02927D02*
X03225D01*
X03206Y02908D02*
Y02945D01*
X03187Y03057D02*
X03225D01*
X03206Y03038D02*
Y03075D01*
X03187Y0312D02*
X03225D01*
X03206Y03101D02*
Y03138D01*
X03187Y02864D02*
X03225D01*
X03206Y02845D02*
Y02883D01*
X03187Y0299D02*
X03225D01*
X03206Y02971D02*
Y03009D01*
X03514Y03185D02*
X03552D01*
X03533Y03166D02*
Y03203D01*
X03431Y03173D02*
Y03193D01*
X03421Y03183D02*
X0344D01*
X03364Y03173D02*
Y03193D01*
X03354Y03183D02*
X03374D01*
X03243Y03185D02*
X0328D01*
X03261Y03166D02*
Y03203D01*
X03397Y03352D02*
Y03372D01*
X03417*
X03397D02*
Y03391D01*
X03377Y03372D02*
X03397D01*
G54D117*
X04687Y012D02*
Y0185D01*
X04321D02*
X04687D01*
X04321Y012D02*
X04687D01*
X04321D02*
Y0185D01*
X03613Y02763D02*
X0386D01*
X03613Y02625D02*
X0386D01*
X03613D02*
Y02763D01*
X0386Y02625D02*
Y02763D01*
X03613Y03016D02*
X0386D01*
X03613Y02878D02*
X0386D01*
X03613D02*
Y03016D01*
X0386Y02878D02*
Y03016D01*
X03726Y03019D02*
Y03078D01*
X0362Y03019D02*
Y03078D01*
Y03019D02*
X03726D01*
X0362Y03078D02*
X03726D01*
X04041Y02651D02*
X04128D01*
X04041Y02848D02*
X04128D01*
X04041Y02651D02*
Y02848D01*
X04128Y02651D02*
Y02848D01*
X03865Y02691D02*
X03924D01*
X03865Y02585D02*
X03924D01*
Y02691*
X03865Y02585D02*
Y02691D01*
Y02837D02*
X03924D01*
X03865Y02944D02*
X03924D01*
X03865Y02837D02*
Y02944D01*
X03924Y02837D02*
Y02944D01*
X04701Y01911D02*
Y02258D01*
X04296Y01911D02*
X04701D01*
X04296D02*
Y02258D01*
X04701*
X03247Y0252D02*
Y02559D01*
X03172Y0252D02*
Y02559D01*
Y0252D02*
X03247D01*
X03172Y02559D02*
X03247D01*
X03305Y02252D02*
Y02327D01*
X03171Y02252D02*
Y02327D01*
Y02252D02*
X03305D01*
X03171Y02327D02*
X03305D01*
X03246Y02332D02*
Y02627D01*
X03541*
Y02332D02*
Y02627D01*
X03246Y02332D02*
X03541D01*
X03484Y03068D02*
X03498D01*
X03484D02*
Y03092D01*
X03459D02*
X03484D01*
X03459D02*
Y03106D01*
X03292Y02939D02*
X03307D01*
Y02915D02*
Y02939D01*
X03459Y02901D02*
Y02915D01*
X03484*
X03331Y03092D02*
Y03106D01*
X03307Y03092D02*
X03331D01*
X03307Y03068D02*
Y03092D01*
X03292Y03068D02*
X03307D01*
Y02915D02*
X03331D01*
Y02901D02*
Y02915D01*
X03484D02*
Y02939D01*
X03498*
X03331Y03106D02*
X03459D01*
X03498Y02939D02*
Y03068D01*
X03331Y02901D02*
X03459D01*
X03292Y02939D02*
Y03068D01*
X03683Y02632D02*
X0379D01*
X03683Y02573D02*
X0379D01*
X03683D02*
Y02632D01*
X0379Y02573D02*
Y02632D01*
X03865Y02954D02*
X03924D01*
X03865Y0306D02*
X03924D01*
X03865Y02954D02*
Y0306D01*
X03924Y02954D02*
Y0306D01*
X0332Y02263D02*
Y02322D01*
X03427Y02263D02*
Y02322D01*
X0332D02*
X03427D01*
X0332Y02263D02*
X03427D01*
X03865Y02804D02*
X03924D01*
X03865Y02697D02*
X03924D01*
Y02804*
X03865Y02697D02*
Y02804D01*
X02875Y02217D02*
Y02406D01*
X02756Y02217D02*
Y02406D01*
X02875*
X02756Y02217D02*
X02875D01*
X02384Y02561D02*
Y02726D01*
X02676Y02561D02*
Y02726D01*
X02384D02*
X02676D01*
X02384Y02561D02*
X02676D01*
X02345Y02214D02*
X02436D01*
X02345Y02399D02*
X02436D01*
X02345Y02214D02*
Y02399D01*
X02436Y02214D02*
Y02399D01*
X02586Y02874D02*
X02751D01*
X02586Y02732D02*
X02751D01*
X02586D02*
Y02874D01*
X02751Y02732D02*
Y02874D01*
X02632Y02885D02*
X02707D01*
X02632Y02925D02*
X02707D01*
Y02885D02*
Y02925D01*
X02632Y02885D02*
Y02925D01*
X02387Y02735D02*
Y02825D01*
X02572Y02735D02*
Y02825D01*
X02387D02*
X02572D01*
X02387Y02735D02*
X02572D01*
X02687Y02536D02*
X02766D01*
X02687Y02717D02*
X02766D01*
X02691Y02536D02*
Y02717D01*
X02766Y02536D02*
Y02717D01*
X02452Y02835D02*
Y03024D01*
X0257Y02835D02*
Y03024D01*
X02452Y02835D02*
X0257D01*
X02452Y03024D02*
X0257D01*
X04041Y02909D02*
X04128D01*
X04041Y03106D02*
X04128D01*
X04041Y02909D02*
Y03106D01*
X04128Y02909D02*
Y03106D01*
X04034Y02947D02*
Y03006D01*
X03927Y02947D02*
Y03006D01*
Y02947D02*
X04034D01*
X03927Y03006D02*
X04034D01*
Y02752D02*
Y02811D01*
X03927Y02752D02*
Y02811D01*
Y02752D02*
X04034D01*
X03927Y02811D02*
X04034D01*
Y02689D02*
Y02748D01*
X03927Y02689D02*
Y02748D01*
Y02689D02*
X04034D01*
X03927Y02748D02*
X04034D01*
X03622Y02763D02*
X03681D01*
X03622Y0287D02*
X03681D01*
X03622Y02763D02*
Y0287D01*
X03681Y02763D02*
Y0287D01*
X03791Y02817D02*
Y02876D01*
X03684Y02817D02*
Y02876D01*
Y02817D02*
X03791D01*
X03684Y02876D02*
X03791D01*
X04034Y0301D02*
Y03069D01*
X03927Y0301D02*
Y03069D01*
Y0301D02*
X04034D01*
X03927Y03069D02*
X04034D01*
X02855Y01742D02*
Y02037D01*
X02992Y01742D02*
Y02037D01*
X02855D02*
X02992D01*
X02855Y01742D02*
X02992D01*
X03226Y02245D02*
X0336D01*
X03226Y02111D02*
X0336D01*
X03226D02*
Y02245D01*
X0336Y02111D02*
Y02245D01*
X03375Y02111D02*
X03509D01*
X03375Y02245D02*
X03509D01*
Y02111D02*
Y02245D01*
X03375Y02111D02*
Y02245D01*
X03118Y02149D02*
Y02208D01*
X03224Y02149D02*
Y02208D01*
X03118D02*
X03224D01*
X03118Y02149D02*
X03224D01*
X03628Y02298D02*
Y02357D01*
X03735Y02298D02*
Y02357D01*
X03628D02*
X03735D01*
X03628Y02298D02*
X03735D01*
X03745D02*
Y02357D01*
X03852Y02298D02*
Y02357D01*
X03745D02*
X03852D01*
X03745Y02298D02*
X03852D01*
X03862Y02365D02*
Y02577D01*
X03572Y02365D02*
Y02577D01*
Y02365D02*
X03862D01*
X03572Y02577D02*
X03862D01*
X03483Y02803D02*
X03542D01*
X03483Y02696D02*
X03542D01*
Y02803*
X03483Y02696D02*
Y02803D01*
X03356Y02756D02*
X03415D01*
X03356Y0265D02*
X03415D01*
Y02756*
X03356Y0265D02*
Y02756D01*
X03293D02*
X03352D01*
X03293Y0265D02*
X03352D01*
Y02756*
X03293Y0265D02*
Y02756D01*
X03229Y0265D02*
X03288D01*
X03229Y02756D02*
X03288D01*
X03229Y0265D02*
Y02756D01*
X03288Y0265D02*
Y02756D01*
X03056Y02354D02*
Y02413D01*
X03162Y02354D02*
Y02413D01*
X03056D02*
X03162D01*
X03056Y02354D02*
X03162D01*
X03055Y0242D02*
Y02479D01*
X03161Y0242D02*
Y02479D01*
X03055D02*
X03161D01*
X03055Y0242D02*
X03161D01*
X03038Y02484D02*
Y02559D01*
X03172Y02484D02*
Y02559D01*
X03038D02*
X03172D01*
X03038Y02484D02*
X03172D01*
X03507Y02861D02*
X03566D01*
X03507Y02968D02*
X03566D01*
X03507Y02861D02*
Y02968D01*
X03566Y02861D02*
Y02968D01*
X03431Y02832D02*
Y02891D01*
X03324Y02832D02*
Y02891D01*
Y02832D02*
X03431D01*
X03324Y02891D02*
X03431D01*
X03153Y02897D02*
Y02956D01*
X03259Y02897D02*
Y02956D01*
X03153D02*
X03259D01*
X03153Y02897D02*
X03259D01*
Y03027D02*
Y03086D01*
X03153Y03027D02*
Y03086D01*
Y03027D02*
X03259D01*
X03153Y03086D02*
X03259D01*
X03153Y0309D02*
Y03149D01*
X03259Y0309D02*
Y03149D01*
X03153D02*
X03259D01*
X03153Y0309D02*
X03259D01*
Y02834D02*
Y02893D01*
X03153Y02834D02*
Y02893D01*
Y02834D02*
X03259D01*
X03153Y02893D02*
X03259D01*
Y0296D02*
Y03019D01*
X03153Y0296D02*
Y03019D01*
Y0296D02*
X03259D01*
X03153Y03019D02*
X03259D01*
X0348Y03155D02*
Y03214D01*
X03586Y03155D02*
Y03214D01*
X0348D02*
X03586D01*
X0348Y03155D02*
X03586D01*
X03399Y03159D02*
X03462D01*
X03399Y03207D02*
X03462D01*
Y03159D02*
Y03207D01*
X03399Y03159D02*
Y03207D01*
X03332D02*
X03395D01*
X03332Y03159D02*
X03395D01*
X03332D02*
Y03207D01*
X03395Y03159D02*
Y03207D01*
X03208Y03155D02*
Y03214D01*
X03314Y03155D02*
Y03214D01*
X03208D02*
X03314D01*
X03208Y03155D02*
X03314D01*
X03194Y03567D02*
X036D01*
X03194Y0322D02*
Y03567D01*
Y0322D02*
X036D01*
Y03567*
M02*