%FSTAX23Y23*%
%MOIN*%
%SFA1B1*%

%IPPOS*%
%ADD43C,0.015000*%
%ADD44C,0.030000*%
%ADD52C,0.060000*%
%ADD53O,0.031496X0.062992*%
%ADD54C,0.275591*%
%ADD55O,0.043307X0.082677*%
%ADD56O,0.043307X0.102362*%
%ADD57O,0.047240X0.078740*%
%ADD58O,0.055118X0.043307*%
%ADD59C,0.118110*%
%ADD60C,0.023000*%
%ADD61C,0.016000*%
%ADD62C,0.028000*%
%ADD63C,0.040000*%
%LNpcb_power_measurement_copper_signal_1-1*%
%LPD*%
G36*
X04085Y03552D02*
X04108Y03546D01*
X0413Y03537*
X0415Y03525*
X04168Y03509*
X04184Y03491*
X04196Y03471*
X04205Y03449*
X04211Y03426*
X04212Y03403*
X04212Y03402*
Y02291*
X04212Y0229*
X04214Y02276*
X0422Y02262*
X04229Y02251*
X0424Y02242*
X04254Y02236*
X04268Y02234*
X04269Y02234*
X0431*
X04312Y02229*
X04307Y02225*
X04302Y02219*
X04298Y02211*
X04297Y02203*
Y02178*
X04361*
Y02203*
X0436Y02211*
X04357Y02219*
X04352Y02225*
X04347Y02229*
X04348Y02234*
X0465*
X04652Y02229*
X04647Y02225*
X04642Y02219*
X04638Y02211*
X04637Y02203*
Y02178*
X04669*
X04701*
Y02203*
X047Y02211*
X04697Y02219*
X04692Y02225*
X04687Y02229*
X04689Y02234*
X04697*
X04697Y02234*
X0472Y02233*
X04743Y02227*
X04765Y02218*
X04786Y02206*
X04804Y0219*
X04819Y02172*
X04831Y02152*
X04841Y0213*
X04846Y02107*
X04848Y02084*
X04848Y02083*
Y01868*
X04848Y01867*
X04846Y01844*
X04841Y01821*
X04831Y01799*
X04819Y01779*
X04804Y01761*
X04786Y01745*
X04765Y01733*
X04743Y01724*
X0472Y01718*
X04697Y01717*
X04697Y01717*
X04696Y01717*
X0319*
X0318Y01721*
X0317Y01728*
X03163Y01737*
X03159Y01748*
X03157Y0176*
X03157Y0176*
Y02032*
X03157*
X03156Y02046*
X0315Y02059*
X03141Y0207*
X0313Y02079*
X03117Y02085*
X03103Y02086*
Y02086*
X02733*
Y02086*
X02718Y02085*
X02705Y02079*
X02694Y0207*
X02685Y02059*
X02679Y02046*
X02678Y02032*
X02678*
Y0176*
X02678Y0176*
X02676Y01748*
X02672Y01737*
X02665Y01728*
X02655Y01721*
X02645Y01717*
X02453*
X02452Y01716*
X02429Y01718*
X02406Y01724*
X02384Y01733*
X02363Y01745*
X02345Y0176*
X0233Y01779*
X02318Y01799*
X02308Y01821*
X02303Y01844*
X02301Y01866*
X02302Y01868*
Y03402*
X02302Y03403*
X02303Y03426*
X02309Y03449*
X02318Y03471*
X0233Y03491*
X02346Y03509*
X02364Y03525*
X02384Y03537*
X02406Y03546*
X02429Y03552*
X02452Y03553*
X02453Y03553*
X04061*
X04062Y03553*
X04085Y03552*
G37*
%LNpcb_power_measurement_copper_signal_1-2*%
%LPC*%
G36*
X03573Y03543D02*
Y03487D01*
X036*
Y03512*
X03599Y0352*
X03596Y03528*
X03591Y03534*
X03584Y03539*
X03576Y03543*
X03573Y03543*
G37*
G36*
X03233D02*
Y03487D01*
X0326*
Y03512*
X03259Y0352*
X03255Y03528*
X0325Y03534*
X03244Y03539*
X03236Y03543*
X03233Y03543*
G37*
G36*
X03223D02*
X0322Y03543D01*
X03212Y03539*
X03205Y03534*
X032Y03528*
X03197Y0352*
X03196Y03512*
Y03487*
X03223*
Y03543*
G37*
G36*
X03563D02*
X0356Y03543D01*
X03552Y03539*
X03545Y03534*
X0354Y03528*
X03537Y0352*
X03536Y03512*
Y03487*
X03563*
Y03543*
G37*
G36*
X03119Y03508D02*
Y03464D01*
X03148*
Y03474*
X03146Y03483*
X03143Y03491*
X03138Y03498*
X03131Y03504*
X03122Y03507*
X03119Y03508*
G37*
G36*
X02796D02*
Y03464D01*
X02825*
Y03474*
X02824Y03483*
X0282Y03491*
X02815Y03498*
X02808Y03504*
X028Y03507*
X02796Y03508*
G37*
G36*
X03109D02*
X03105Y03507D01*
X03097Y03504*
X0309Y03498*
X03084Y03491*
X03081Y03483*
X0308Y03474*
Y03464*
X03109*
Y03508*
G37*
G36*
X02786D02*
X02782Y03507D01*
X02774Y03504*
X02767Y03498*
X02761Y03491*
X02758Y03483*
X02757Y03474*
Y03464*
X02786*
Y03508*
G37*
G36*
X03037Y03484D02*
X03025D01*
X03018Y03483*
X03012Y03481*
X03007Y03477*
X03003Y03471*
X03Y03465*
X02999Y03459*
X03Y03452*
X03003Y03446*
X03007Y0344*
X03012Y03436*
X03018Y03434*
X03025Y03433*
X03037*
X03044Y03434*
X0305Y03436*
X03055Y0344*
X03059Y03446*
X03062Y03452*
X03063Y03459*
X03062Y03465*
X03059Y03471*
X03055Y03477*
X0305Y03481*
X03044Y03483*
X03037Y03484*
G37*
G36*
X02958D02*
X02946D01*
X0294Y03483*
X02933Y03481*
X02928Y03477*
X02924Y03471*
X02921Y03465*
X0292Y03459*
X02921Y03452*
X02924Y03446*
X02928Y0344*
X02933Y03436*
X0294Y03434*
X02946Y03433*
X02958*
X02965Y03434*
X02971Y03436*
X02976Y0344*
X02981Y03446*
X02983Y03452*
X02984Y03459*
X02983Y03465*
X02981Y03471*
X02976Y03477*
X02971Y03481*
X02965Y03483*
X02958Y03484*
G37*
G36*
X02879D02*
X02868D01*
X02861Y03483*
X02855Y03481*
X02849Y03477*
X02845Y03471*
X02843Y03465*
X02842Y03459*
X02843Y03452*
X02845Y03446*
X02849Y0344*
X02855Y03436*
X02861Y03434*
X02868Y03433*
X02879*
X02886Y03434*
X02892Y03436*
X02898Y0344*
X02902Y03446*
X02904Y03452*
X02905Y03459*
X02904Y03465*
X02902Y03471*
X02898Y03477*
X02892Y03481*
X02886Y03483*
X02879Y03484*
G37*
G36*
X036Y03477D02*
X03573D01*
Y03421*
X03576Y03422*
X03584Y03425*
X03591Y0343*
X03596Y03437*
X03599Y03444*
X036Y03453*
Y03477*
G37*
G36*
X0326D02*
X03233D01*
Y03421*
X03236Y03422*
X03244Y03425*
X0325Y0343*
X03255Y03437*
X03259Y03444*
X0326Y03453*
Y03477*
G37*
G36*
X03223D02*
X03196D01*
Y03453*
X03197Y03444*
X032Y03437*
X03205Y0343*
X03212Y03425*
X0322Y03422*
X03223Y03421*
Y03477*
G37*
G36*
X03563D02*
X03536D01*
Y03453*
X03537Y03444*
X0354Y03437*
X03545Y0343*
X03552Y03425*
X0356Y03422*
X03563Y03421*
Y03477*
G37*
G36*
X03148Y03454D02*
X03119D01*
Y03409*
X03122Y0341*
X03131Y03413*
X03138Y03419*
X03143Y03426*
X03146Y03434*
X03148Y03443*
Y03454*
G37*
G36*
X02825D02*
X02796D01*
Y03409*
X028Y0341*
X02808Y03413*
X02815Y03419*
X0282Y03426*
X02824Y03434*
X02825Y03443*
Y03454*
G37*
G36*
X03109D02*
X0308D01*
Y03443*
X03081Y03434*
X03084Y03426*
X0309Y03419*
X03097Y03413*
X03105Y0341*
X03109Y03409*
Y03454*
G37*
G36*
X02786D02*
X02757D01*
Y03443*
X02758Y03434*
X02761Y03426*
X02767Y03419*
X02774Y03413*
X02782Y0341*
X02786Y03409*
Y03454*
G37*
G36*
X04054Y0354D02*
Y03398D01*
X04196*
X04195Y03416*
X04189Y03438*
X04181Y0346*
X04168Y0348*
X04153Y03497*
X04136Y03512*
X04116Y03525*
X04094Y03533*
X04072Y03539*
X04054Y0354*
G37*
G36*
X04044D02*
X04025Y03539D01*
X04003Y03533*
X03981Y03525*
X03961Y03512*
X03944Y03497*
X03929Y0348*
X03916Y0346*
X03908Y03438*
X03902Y03416*
X03901Y03398*
X04044*
Y0354*
G37*
G36*
X02466D02*
Y03398D01*
X02608*
X02607Y03416*
X02601Y03438*
X02593Y0346*
X0258Y0348*
X02565Y03497*
X02548Y03512*
X02528Y03525*
X02506Y03533*
X02484Y03539*
X02466Y0354*
G37*
G36*
X02456D02*
X02437Y03539D01*
X02415Y03533*
X02393Y03525*
X02373Y03512*
X02356Y03497*
X02341Y0348*
X02328Y0346*
X0232Y03438*
X02314Y03416*
X02313Y03398*
X02456*
Y0354*
G37*
G36*
X03357Y03377D02*
X03351Y03375D01*
X03346Y03372*
X03342Y03367*
X03341Y03361*
X03342Y03355*
X03346Y0335*
X03351Y03346*
X03357Y03345*
X03363Y03346*
X03368Y0335*
X03371Y03355*
X03373Y03361*
X03371Y03367*
X03368Y03372*
X03363Y03375*
X03357Y03377*
G37*
G36*
X03417Y03362D02*
X03411Y03361D01*
X03406Y03357*
X03402Y03352*
X03401Y03346*
X03402Y0334*
X03406Y03335*
X03411Y03331*
X03417Y0333*
X03423Y03331*
X03428Y03335*
X03431Y0334*
X03433Y03346*
X03431Y03352*
X03428Y03357*
X03423Y03361*
X03417Y03362*
G37*
G36*
X03232Y03323D02*
Y03277D01*
X03259*
Y03291*
X03258Y03299*
X03255Y03307*
X0325Y03314*
X03243Y03319*
X03235Y03322*
X03232Y03323*
G37*
G36*
X03222D02*
X03219Y03322D01*
X03211Y03319*
X03204Y03314*
X03199Y03307*
X03196Y03299*
X03195Y03291*
Y03277*
X03222*
Y03323*
G37*
G36*
X03572D02*
Y03277D01*
X03599*
Y03291*
X03598Y03299*
X03595Y03307*
X0359Y03314*
X03583Y03319*
X03575Y03322*
X03572Y03323*
G37*
G36*
X03562D02*
X03559Y03322D01*
X03551Y03319*
X03545Y03314*
X0354Y03307*
X03536Y03299*
X03535Y03291*
Y03277*
X03562*
Y03323*
G37*
G36*
X03715Y03289D02*
Y03255D01*
X03749*
X03748Y0326*
X03744Y0327*
X03738Y03278*
X0373Y03284*
X0372Y03288*
X03715Y03289*
G37*
G36*
X03705D02*
X03699Y03288D01*
X03689Y03284*
X03681Y03278*
X03675Y0327*
X03671Y0326*
X0367Y03255*
X03705*
Y03289*
G37*
G36*
X04196Y03388D02*
X04054D01*
Y03245*
X04072Y03246*
X04094Y03252*
X04116Y0326*
X04136Y03273*
X04153Y03288*
X04168Y03305*
X04181Y03325*
X04189Y03347*
X04195Y03369*
X04196Y03388*
G37*
G36*
X04044D02*
X03901D01*
X03902Y03369*
X03908Y03347*
X03916Y03325*
X03929Y03305*
X03944Y03288*
X03961Y03273*
X03981Y0326*
X04003Y03252*
X04025Y03246*
X04044Y03245*
Y03388*
G37*
G36*
X02608D02*
X02466D01*
Y03245*
X02484Y03246*
X02506Y03252*
X02528Y0326*
X02548Y03273*
X02565Y03288*
X0258Y03305*
X02593Y03325*
X02601Y03347*
X02607Y03369*
X02608Y03388*
G37*
G36*
X02456D02*
X02313D01*
X02314Y03369*
X0232Y03347*
X02328Y03325*
X02341Y03305*
X02356Y03288*
X02373Y03273*
X02393Y0326*
X02415Y03252*
X02437Y03246*
X02456Y03245*
Y03388*
G37*
G36*
X03599Y03267D02*
X03572D01*
Y03221*
X03575Y03221*
X03583Y03224*
X0359Y03229*
X03595Y03236*
X03598Y03244*
X03599Y03252*
Y03267*
G37*
G36*
X03259D02*
X03232D01*
Y03221*
X03235Y03221*
X03243Y03224*
X0325Y03229*
X03255Y03236*
X03258Y03244*
X03259Y03252*
Y03267*
G37*
G36*
X03222D02*
X03195D01*
Y03252*
X03196Y03244*
X03199Y03236*
X03204Y03229*
X03211Y03224*
X03219Y03221*
X03222Y03221*
Y03267*
G37*
G36*
X03562D02*
X03535D01*
Y03252*
X03536Y03244*
X0354Y03236*
X03545Y03229*
X03551Y03224*
X03559Y03221*
X03562Y03221*
Y03267*
G37*
G36*
X03749Y03245D02*
X03715D01*
Y0321*
X0372Y03211*
X0373Y03215*
X03738Y03221*
X03744Y03229*
X03748Y03239*
X03749Y03245*
G37*
G36*
X03705D02*
X0367D01*
X03671Y03239*
X03675Y03229*
X03681Y03221*
X03689Y03215*
X03699Y03211*
X03705Y0321*
Y03245*
G37*
G36*
X03417Y03231D02*
X03411Y0323D01*
X03406Y03226*
X03402Y03221*
X03401Y03215*
X03402Y03209*
X03406Y03204*
X03411Y032*
X03417Y03199*
X03423Y032*
X03428Y03204*
X03431Y03209*
X03433Y03215*
X03431Y03221*
X03428Y03226*
X03423Y0323*
X03417Y03231*
G37*
G36*
X03198Y03204D02*
Y03189D01*
X03214*
X03214Y03192*
X03209Y03199*
X03202Y03204*
X03198Y03204*
G37*
G36*
X03188D02*
X03185Y03204D01*
X03178Y03199*
X03173Y03192*
X03172Y03189*
X03188*
Y03204*
G37*
G36*
X03214Y03179D02*
X03198D01*
Y03163*
X03202Y03163*
X03209Y03168*
X03214Y03175*
X03214Y03179*
G37*
G36*
X03188D02*
X03172D01*
X03173Y03175*
X03178Y03168*
X03185Y03163*
X03188Y03163*
Y03179*
G37*
G36*
X03449Y03173D02*
Y03157D01*
X03465*
X03465Y0316*
X0346Y03168*
X03453Y03172*
X03449Y03173*
G37*
G36*
X03439D02*
X03436Y03172D01*
X03429Y03168*
X03424Y0316*
X03423Y03157*
X03439*
Y03173*
G37*
G36*
X03355D02*
Y03157D01*
X03371*
X0337Y0316*
X03365Y03168*
X03358Y03172*
X03355Y03173*
G37*
G36*
X03345D02*
X03342Y03172D01*
X03334Y03168*
X0333Y0316*
X03329Y03157*
X03345*
Y03173*
G37*
G36*
X03287Y03164D02*
X03281Y03163D01*
X03276Y03159*
X03272Y03154*
X03271Y03148*
X03272Y03142*
X03276Y03137*
X03281Y03134*
X03287Y03132*
X03293Y03134*
X03298Y03137*
X03302Y03142*
X03303Y03148*
X03302Y03154*
X03298Y03159*
X03293Y03163*
X03287Y03164*
G37*
G36*
X03465Y03147D02*
X03449D01*
Y03131*
X03453Y03132*
X0346Y03137*
X03465Y03144*
X03465Y03147*
G37*
G36*
X03439D02*
X03423D01*
X03424Y03144*
X03429Y03137*
X03436Y03132*
X03439Y03131*
Y03147*
G37*
G36*
X03371D02*
X03355D01*
Y03131*
X03358Y03132*
X03365Y03137*
X0337Y03144*
X03371Y03147*
G37*
G36*
X03345D02*
X03329D01*
X0333Y03144*
X03334Y03137*
X03342Y03132*
X03345Y03131*
Y03147*
G37*
G36*
X04085Y03232D02*
X04072Y03231D01*
X0406Y03227*
X04049Y03221*
X0404Y03214*
X04032Y03204*
X04026Y03193*
X04022Y03181*
X04021Y03169*
X04022Y03156*
X04026Y03145*
X04032Y03134*
X0404Y03124*
X04049Y03116*
X0406Y0311*
X04072Y03107*
X04085Y03105*
X04097Y03107*
X04109Y0311*
X0412Y03116*
X04129Y03124*
X04137Y03134*
X04143Y03145*
X04147Y03156*
X04148Y03169*
X04147Y03181*
X04143Y03193*
X04137Y03204*
X04129Y03214*
X0412Y03221*
X04109Y03227*
X04097Y03231*
X04085Y03232*
G37*
G36*
X03762Y03164D02*
X03753Y03163D01*
X03744Y03159*
X03737Y03154*
X03732Y03147*
X03728Y03138*
X03727Y0313*
X03728Y03121*
X03732Y03112*
X03737Y03105*
X03744Y031*
X03753Y03096*
X03762Y03095*
X0377Y03096*
X03779Y031*
X03786Y03105*
X03791Y03112*
X03795Y03121*
X03796Y0313*
X03795Y03138*
X03791Y03147*
X03786Y03154*
X03779Y03159*
X0377Y03163*
X03762Y03164*
G37*
G36*
X03662D02*
X03653Y03163D01*
X03644Y03159*
X03637Y03154*
X03632Y03147*
X03628Y03138*
X03627Y0313*
X03628Y03121*
X03632Y03112*
X03637Y03105*
X03644Y031*
X03653Y03096*
X03662Y03095*
X0367Y03096*
X03679Y031*
X03686Y03105*
X03691Y03112*
X03695Y03121*
X03696Y0313*
X03695Y03138*
X03691Y03147*
X03686Y03154*
X03679Y03159*
X0367Y03163*
X03662Y03164*
G37*
G36*
X03232Y03104D02*
X03225Y03103D01*
X0322Y031*
X03217Y03095*
X03216Y03089*
X03217Y03082*
X0322Y03077*
X03225Y03074*
X03232Y03073*
X03238Y03074*
X03243Y03077*
X03246Y03082*
X03247Y03089*
X03246Y03095*
X03243Y031*
X03238Y03103*
X03232Y03104*
G37*
G36*
X03147Y03078D02*
Y03062D01*
X03163*
X03162Y03065*
X03158Y03072*
X0315Y03077*
X03147Y03078*
G37*
G36*
X03137D02*
X03134Y03077D01*
X03127Y03072*
X03122Y03065*
X03121Y03062*
X03137*
Y03078*
G37*
G36*
X02975Y03163D02*
X02962Y03162D01*
X0295Y03158*
X02939Y03152*
X0293Y03144*
X02922Y03135*
X02916Y03124*
X02912Y03112*
X02911Y031*
X02912Y03087*
X02916Y03075*
X02922Y03064*
X0293Y03055*
X02939Y03047*
X0295Y03041*
X02962Y03037*
X02975Y03036*
X02987Y03037*
X02999Y03041*
X0301Y03047*
X03019Y03055*
X03027Y03064*
X03033Y03075*
X03037Y03087*
X03038Y031*
X03037Y03112*
X03033Y03124*
X03027Y03135*
X03019Y03144*
X0301Y03152*
X02999Y03158*
X02987Y03162*
X02975Y03163*
G37*
G36*
X03163Y03052D02*
X03147D01*
Y03036*
X0315Y03037*
X03158Y03041*
X03162Y03048*
X03163Y03052*
G37*
G36*
X03137D02*
X03121D01*
X03122Y03048*
X03127Y03041*
X03134Y03037*
X03137Y03036*
Y03052*
G37*
G36*
X03503Y03047D02*
X03496Y03046D01*
X03491Y03043*
X03488Y03038*
X03487Y03032*
X03488Y03025*
X03491Y0302*
X03496Y03017*
X03503Y03016*
X03509Y03017*
X03514Y0302*
X03517Y03025*
X03518Y03032*
X03517Y03038*
X03514Y03043*
X03509Y03046*
X03503Y03047*
G37*
G36*
X03776Y03002D02*
X03769Y03001D01*
X03764Y02998*
X03761Y02993*
X0376Y02987*
X03761Y0298*
X03764Y02975*
X03769Y02972*
X03776Y02971*
X03782Y02972*
X03787Y02975*
X0379Y0298*
X03791Y02987*
X0379Y02993*
X03787Y02998*
X03782Y03001*
X03776Y03002*
G37*
G36*
X03149Y02949D02*
Y02933D01*
X03165*
X03164Y02936*
X03159Y02943*
X03152Y02948*
X03149Y02949*
G37*
G36*
X03139D02*
X03136Y02948D01*
X03128Y02943*
X03124Y02936*
X03123Y02933*
X03139*
Y02949*
G37*
G36*
X03165Y02923D02*
X03149D01*
Y02907*
X03152Y02907*
X03159Y02912*
X03164Y02919*
X03165Y02923*
G37*
G36*
X03139D02*
X03123D01*
X03124Y02919*
X03128Y02912*
X03136Y02907*
X03139Y02907*
Y02923*
G37*
G36*
X02376Y03032D02*
X02364Y03031D01*
X02352Y03028*
X02341Y03022*
X02332Y03014*
X02324Y03004*
X02318Y02993*
X02314Y02981*
X02313Y02969*
X02314Y02957*
X02318Y02945*
X02324Y02934*
X02332Y02924*
X02341Y02916*
X02352Y0291*
X02364Y02907*
X02376Y02906*
X02389Y02907*
X02401Y0291*
X02412Y02916*
X02421Y02924*
X02429Y02934*
X02435Y02945*
X02439Y02957*
X0244Y02969*
X02439Y02981*
X02435Y02993*
X02429Y03004*
X02421Y03014*
X02412Y03022*
X02401Y03028*
X02389Y03031*
X02376Y03032*
G37*
G36*
X03496Y02933D02*
X0349Y02932D01*
X03485Y02928*
X03481Y02923*
X0348Y02917*
X03481Y02911*
X03485Y02906*
X0349Y02902*
X03496Y02901*
X03502Y02902*
X03507Y02906*
X0351Y02911*
X03512Y02917*
X0351Y02923*
X03507Y02928*
X03502Y02932*
X03496Y02933*
G37*
G36*
X03944Y02905D02*
Y0289D01*
X03959*
X03959Y02893*
X03954Y029*
X03947Y02905*
X03944Y02905*
G37*
G36*
X03934D02*
X0393Y02905D01*
X03923Y029*
X03918Y02893*
X03918Y0289*
X03934*
Y02905*
G37*
G36*
X03987Y02899D02*
X0398Y02898D01*
X03975Y02895*
X03972Y0289*
X03971Y02884*
X03972Y02877*
X03975Y02872*
X0398Y02869*
X03987Y02868*
X03993Y02869*
X03998Y02872*
X04001Y02877*
X04002Y02884*
X04001Y0289*
X03998Y02895*
X03993Y02898*
X03987Y02899*
G37*
G36*
X03312Y02883D02*
Y02867D01*
X03328*
X03327Y0287*
X03322Y02877*
X03315Y02882*
X03312Y02883*
G37*
G36*
X03302D02*
X03298Y02882D01*
X03291Y02877*
X03286Y0287*
X03286Y02867*
X03302*
Y02883*
G37*
G36*
X03959Y0288D02*
X03944D01*
Y02864*
X03947Y02864*
X03954Y02869*
X03959Y02876*
X03959Y0288*
G37*
G36*
X03934D02*
X03918D01*
X03918Y02876*
X03923Y02869*
X0393Y02864*
X03934Y02864*
Y0288*
G37*
G36*
X03615Y02891D02*
X03609Y0289D01*
X03604Y02886*
X036Y02881*
X03599Y02875*
X036Y02869*
X03604Y02864*
X03609Y0286*
X03615Y02859*
X03621Y0286*
X03626Y02864*
X0363Y02869*
X03631Y02875*
X0363Y02881*
X03626Y02886*
X03621Y0289*
X03615Y02891*
G37*
G36*
X03328Y02857D02*
X03312D01*
Y02841*
X03315Y02841*
X03322Y02846*
X03327Y02853*
X03328Y02857*
G37*
G36*
X03302D02*
X03286D01*
X03286Y02853*
X03291Y02846*
X03298Y02841*
X03302Y02841*
Y02857*
G37*
G36*
X03517Y02832D02*
Y02817D01*
X03533*
X03532Y0282*
X03527Y02827*
X0352Y02832*
X03517Y02832*
G37*
G36*
X03507D02*
X03504Y02832D01*
X03496Y02827*
X03492Y0282*
X03491Y02817*
X03507*
Y02832*
G37*
G36*
X03896Y02837D02*
X03889Y02836D01*
X03884Y02833*
X03881Y02828*
X0388Y02822*
X03881Y02815*
X03884Y0281*
X03889Y02807*
X03896Y02806*
X03902Y02807*
X03907Y0281*
X0391Y02815*
X03911Y02822*
X0391Y02828*
X03907Y02833*
X03902Y02836*
X03896Y02837*
G37*
G36*
X03533Y02807D02*
X03517D01*
Y02791*
X0352Y02791*
X03527Y02796*
X03532Y02803*
X03533Y02807*
G37*
G36*
X03507D02*
X03491D01*
X03492Y02803*
X03496Y02796*
X03504Y02791*
X03507Y02791*
Y02807*
G37*
G36*
X02482Y02802D02*
Y02787D01*
X02497*
X02497Y0279*
X02492Y02797*
X02485Y02802*
X02482Y02802*
G37*
G36*
X02472D02*
X02468Y02802D01*
X02461Y02797*
X02456Y0279*
X02456Y02787*
X02472*
Y02802*
G37*
G36*
X03711Y02814D02*
X03704Y02813D01*
X03699Y02809*
X03696Y02804*
X03695Y02798*
X03696Y02792*
X03699Y02787*
X03704Y02783*
X03711Y02782*
X03717Y02783*
X03722Y02787*
X03725Y02792*
X03726Y02798*
X03725Y02804*
X03722Y02809*
X03717Y02813*
X03711Y02814*
G37*
G36*
X0339Y02796D02*
Y0278D01*
X03406*
X03405Y02783*
X034Y02791*
X03393Y02795*
X0339Y02796*
G37*
G36*
X0338D02*
X03376Y02795D01*
X03369Y02791*
X03364Y02783*
X03364Y0278*
X0338*
Y02796*
G37*
G36*
X03264D02*
Y0278D01*
X0328*
X03279Y02783*
X03274Y02791*
X03267Y02795*
X03264Y02796*
G37*
G36*
X03254D02*
X0325Y02795D01*
X03243Y02791*
X03238Y02783*
X03238Y0278*
X03254*
Y02796*
G37*
G36*
X02786Y02778D02*
Y02762D01*
X02802*
X02801Y02766*
X02796Y02773*
X02789Y02778*
X02786Y02778*
G37*
G36*
X02776D02*
X02773Y02778D01*
X02765Y02773*
X02761Y02766*
X0276Y02762*
X02776*
Y02778*
G37*
G36*
X02497Y02777D02*
X02482D01*
Y02761*
X02485Y02761*
X02492Y02766*
X02497Y02773*
X02497Y02777*
G37*
G36*
X02472D02*
X02456D01*
X02456Y02773*
X02461Y02766*
X02468Y02761*
X02472Y02761*
Y02777*
G37*
G36*
X03406Y0277D02*
X0339D01*
Y02754*
X03393Y02755*
X034Y0276*
X03405Y02767*
X03406Y0277*
G37*
G36*
X0338D02*
X03364D01*
X03364Y02767*
X03369Y0276*
X03376Y02755*
X0338Y02754*
Y0277*
G37*
G36*
X0328D02*
X03264D01*
Y02754*
X03267Y02755*
X03274Y0276*
X03279Y02767*
X0328Y0277*
G37*
G36*
X03254D02*
X03238D01*
X03238Y02767*
X03243Y0276*
X0325Y02755*
X03254Y02754*
Y0277*
G37*
G36*
X03562Y02771D02*
X03555Y0277D01*
X0355Y02767*
X03547Y02762*
X03546Y02756*
X03547Y02749*
X0355Y02744*
X03555Y02741*
X03562Y0274*
X03568Y02741*
X03573Y02744*
X03576Y02749*
X03577Y02756*
X03576Y02762*
X03573Y02767*
X03568Y0277*
X03562Y02771*
G37*
G36*
X02802Y02752D02*
X02786D01*
Y02736*
X02789Y02737*
X02796Y02742*
X02801Y02749*
X02802Y02752*
G37*
G36*
X02776D02*
X0276D01*
X02761Y02749*
X02765Y02742*
X02773Y02737*
X02776Y02736*
Y02752*
G37*
G36*
X03471Y02741D02*
X03463Y0274D01*
X03458Y02736*
X03454Y0273*
X03452Y02723*
X03454Y02716*
X03458Y0271*
X03463Y02706*
X03471Y02705*
X03478Y02706*
X03483Y0271*
X03487Y02716*
X03489Y02723*
X03487Y0273*
X03483Y02736*
X03478Y0274*
X03471Y02741*
G37*
G36*
X03758Y0271D02*
X03751Y02709D01*
X03746Y02706*
X03743Y02701*
X03742Y02695*
X03743Y02688*
X03746Y02683*
X03751Y0268*
X03758Y02679*
X03764Y0268*
X03769Y02683*
X03772Y02688*
X03773Y02695*
X03772Y02701*
X03769Y02706*
X03764Y02709*
X03758Y0271*
G37*
G36*
X03577Y02709D02*
X0357Y02708D01*
X03565Y02705*
X03562Y027*
X03561Y02694*
X03562Y02687*
X03565Y02682*
X0357Y02679*
X03577Y02678*
X03583Y02679*
X03588Y02682*
X03591Y02687*
X03592Y02694*
X03591Y027*
X03588Y02705*
X03583Y02708*
X03577Y02709*
G37*
G36*
X02519Y02687D02*
Y02672D01*
X02534*
X02534Y02675*
X02529Y02682*
X02522Y02687*
X02519Y02687*
G37*
G36*
X02509D02*
X02505Y02687D01*
X02498Y02682*
X02493Y02675*
X02493Y02672*
X02509*
Y02687*
G37*
G36*
X02381D02*
Y02672D01*
X02396*
X02396Y02675*
X02391Y02682*
X02384Y02687*
X02381Y02687*
G37*
G36*
X02371D02*
X02367Y02687D01*
X0236Y02682*
X02355Y02675*
X02355Y02672*
X02371*
Y02687*
G37*
G36*
X03937Y02683D02*
Y02668D01*
X03952*
X03952Y02671*
X03947Y02678*
X0394Y02683*
X03937Y02683*
G37*
G36*
X03927D02*
X03923Y02683D01*
X03916Y02678*
X03911Y02671*
X03911Y02668*
X03927*
Y02683*
G37*
G36*
X03549Y02684D02*
X03542Y02683D01*
X03537Y0268*
X03534Y02675*
X03533Y02669*
X03534Y02662*
X03537Y02657*
X03542Y02654*
X03549Y02653*
X03555Y02654*
X0356Y02657*
X03563Y02662*
X03564Y02669*
X03563Y02675*
X0356Y0268*
X03555Y02683*
X03549Y02684*
G37*
G36*
X02534Y02662D02*
X02519D01*
Y02646*
X02522Y02646*
X02529Y02651*
X02534Y02658*
X02534Y02662*
G37*
G36*
X02509D02*
X02493D01*
X02493Y02658*
X02498Y02651*
X02505Y02646*
X02509Y02646*
Y02662*
G37*
G36*
X03952Y02658D02*
X03937D01*
Y02642*
X0394Y02642*
X03947Y02647*
X03952Y02654*
X03952Y02658*
G37*
G36*
X03927D02*
X03911D01*
X03911Y02654*
X03916Y02647*
X03923Y02642*
X03927Y02642*
Y02658*
G37*
G36*
X03475Y02684D02*
X03468Y02683D01*
X03463Y0268*
X0346Y02674*
X03459Y02668*
X0346Y02662*
X03463Y02657*
X03468Y02654*
X03475Y02653*
X03476Y02648*
X03476Y02647*
X03477Y0264*
X0348Y02635*
X03485Y02632*
X03492Y02631*
X03498Y02632*
X03503Y02635*
X03506Y0264*
X03507Y02647*
X03506Y02653*
X03503Y02658*
X03498Y02661*
X03492Y02662*
X0349Y02667*
X0349Y02668*
X03489Y02674*
X03486Y0268*
X03481Y02683*
X03475Y02684*
G37*
G36*
X03403Y02653D02*
X03398Y02652D01*
X03394Y0265*
X03392Y02646*
X03391Y02641*
X03392Y02636*
X03394Y02632*
X03398Y0263*
X03403Y02629*
X03408Y0263*
X03412Y02632*
X03414Y02636*
X03415Y02641*
X03414Y02646*
X03412Y0265*
X03408Y02652*
X03403Y02653*
G37*
G36*
X02396Y02662D02*
X02355D01*
X02355Y02658*
X0236Y02651*
X02367Y02646*
X02373Y02645*
X02373Y02645*
Y0264*
X02373Y0264*
X02367Y02639*
X0236Y02634*
X02355Y02627*
X02355Y02624*
X02396*
X02396Y02627*
X02391Y02634*
X02384Y02639*
X02378Y0264*
X02378Y0264*
Y02645*
X02378Y02645*
X02384Y02646*
X02391Y02651*
X02396Y02658*
X02396Y02662*
G37*
G36*
X02519Y02637D02*
Y02622D01*
X02534*
X02534Y02625*
X02529Y02632*
X02522Y02637*
X02519Y02637*
G37*
G36*
X02509D02*
X02505Y02637D01*
X02498Y02632*
X02493Y02625*
X02493Y02622*
X02509*
Y02637*
G37*
G36*
X02945Y0274D02*
X02933Y02739D01*
X02921Y02735*
X0291Y02729*
X02901Y02721*
X02893Y02712*
X02887Y02701*
X02883Y02689*
X02882Y02677*
X02883Y02664*
X02887Y02652*
X02893Y02641*
X02901Y02632*
X0291Y02624*
X02921Y02618*
X02933Y02615*
X02945Y02613*
X02958Y02615*
X0297Y02618*
X02981Y02624*
X0299Y02632*
X02998Y02641*
X03004Y02652*
X03008Y02664*
X03009Y02677*
X03008Y02689*
X03004Y02701*
X02998Y02712*
X0299Y02721*
X02981Y02729*
X0297Y02735*
X02958Y02739*
X02945Y0274*
G37*
G36*
X02396Y02614D02*
X02381D01*
Y02598*
X02384Y02598*
X02391Y02603*
X02396Y0261*
X02396Y02614*
G37*
G36*
X02371D02*
X02355D01*
X02355Y0261*
X0236Y02603*
X02367Y02598*
X02371Y02598*
Y02614*
G37*
G36*
X03548Y02628D02*
X03541Y02627D01*
X03536Y02624*
X03533Y02619*
X03532Y02613*
X03533Y02606*
X03536Y02601*
X03541Y02598*
X03548Y02597*
X03554Y02598*
X03559Y02601*
X03562Y02606*
X03563Y02613*
X03562Y02619*
X03559Y02624*
X03554Y02627*
X03548Y02628*
G37*
G36*
X02534Y02612D02*
X02519D01*
Y02596*
X02522Y02596*
X02529Y02601*
X02534Y02608*
X02534Y02612*
G37*
G36*
X02509D02*
X02493D01*
X02493Y02608*
X02498Y02601*
X02505Y02596*
X02509Y02596*
Y02612*
G37*
G36*
X04085Y0261D02*
X04078Y02609D01*
X04073Y02606*
X0407Y02601*
X04069Y02595*
X0407Y02588*
X04073Y02583*
X04078Y0258*
X04085Y02579*
X04091Y0258*
X04096Y02583*
X04099Y02588*
X041Y02595*
X04099Y02601*
X04096Y02606*
X04091Y02609*
X04085Y0261*
G37*
G36*
X03828Y02594D02*
Y02579D01*
X03843*
X03843Y02582*
X03838Y02589*
X03831Y02594*
X03828Y02594*
G37*
G36*
X03818D02*
X03814Y02594D01*
X03807Y02589*
X03802Y02582*
X03802Y02579*
X03818*
Y02594*
G37*
G36*
X03668Y02604D02*
X03661Y02603D01*
X03656Y026*
X03653Y02595*
X03652Y02589*
X03653Y02582*
X03656Y02577*
X03661Y02574*
X03668Y02573*
X03674Y02574*
X03679Y02577*
X03682Y02582*
X03683Y02589*
X03682Y02595*
X03679Y026*
X03674Y02603*
X03668Y02604*
G37*
G36*
X03895Y02592D02*
X03888Y02591D01*
X03883Y02588*
X0388Y02583*
X03879Y02577*
X0388Y0257*
X03883Y02565*
X03888Y02562*
X03895Y02561*
X03901Y02562*
X03906Y02565*
X03909Y0257*
X0391Y02577*
X03909Y02583*
X03906Y02588*
X03901Y02591*
X03895Y02592*
G37*
G36*
X03843Y02569D02*
X03828D01*
Y02553*
X03831Y02553*
X03838Y02558*
X03843Y02565*
X03843Y02569*
G37*
G36*
X03818D02*
X03802D01*
X03802Y02565*
X03807Y02558*
X03814Y02553*
X03818Y02553*
Y02569*
G37*
G36*
X03035Y02543D02*
Y02527D01*
X03051*
X0305Y0253*
X03046Y02537*
X03038Y02542*
X03035Y02543*
G37*
G36*
X03025D02*
X03022Y02542D01*
X03015Y02537*
X0301Y0253*
X03009Y02527*
X03025*
Y02543*
G37*
G36*
X03051Y02517D02*
X03035D01*
Y02501*
X03038Y02501*
X03046Y02506*
X0305Y02513*
X03051Y02517*
G37*
G36*
X03025D02*
X03009D01*
X0301Y02513*
X03015Y02506*
X03022Y02501*
X03025Y02501*
Y02517*
G37*
G36*
X03042Y02471D02*
Y02455D01*
X03058*
X03057Y02458*
X03052Y02465*
X03045Y0247*
X03042Y02471*
G37*
G36*
X03032D02*
X03029Y0247D01*
X03021Y02465*
X03017Y02458*
X03016Y02455*
X03032*
Y02471*
G37*
G36*
X03058Y02445D02*
X03042D01*
Y02429*
X03045Y02429*
X03052Y02434*
X03057Y02441*
X03058Y02445*
G37*
G36*
X03032D02*
X03016D01*
X03017Y02441*
X03021Y02434*
X03029Y02429*
X03032Y02429*
Y02445*
G37*
G36*
X03042Y02406D02*
Y0239D01*
X03058*
X03057Y02394*
X03052Y02401*
X03045Y02406*
X03042Y02406*
G37*
G36*
X03032D02*
X03029Y02406D01*
X03021Y02401*
X03017Y02394*
X03016Y0239*
X03032*
Y02406*
G37*
G36*
X03714Y02389D02*
Y02373D01*
X0373*
X03729Y02376*
X03724Y02384*
X03717Y02388*
X03714Y02389*
G37*
G36*
X03704D02*
X037Y02388D01*
X03693Y02384*
X03688Y02376*
X03688Y02373*
X03704*
Y02389*
G37*
G36*
X03058Y0238D02*
X03042D01*
Y02364*
X03045Y02365*
X03052Y0237*
X03057Y02377*
X03058Y0238*
G37*
G36*
X03032D02*
X03016D01*
X03017Y02377*
X03021Y0237*
X03029Y02365*
X03032Y02364*
Y0238*
G37*
G36*
X0373Y02363D02*
X03714D01*
Y02347*
X03717Y02348*
X03724Y02353*
X03729Y0236*
X0373Y02363*
G37*
G36*
X03704D02*
X03688D01*
X03688Y0236*
X03693Y02353*
X037Y02348*
X03704Y02347*
Y02363*
G37*
G36*
X03612Y02374D02*
X03606Y02372D01*
X03601Y02369*
X03597Y02364*
X03596Y02358*
X03597Y02352*
X03601Y02347*
X03606Y02343*
X03612Y02342*
X03618Y02343*
X03623Y02347*
X03626Y02352*
X03628Y02358*
X03626Y02364*
X03623Y02369*
X03618Y02372*
X03612Y02374*
G37*
G36*
X03457Y02339D02*
Y02324D01*
X03472*
X03472Y02327*
X03467Y02334*
X0346Y02339*
X03457Y02339*
G37*
G36*
X03447D02*
X03443Y02339D01*
X03436Y02334*
X03431Y02327*
X03431Y02324*
X03447*
Y02339*
G37*
G36*
X02397Y02336D02*
Y02321D01*
X02412*
X02412Y02324*
X02407Y02331*
X024Y02336*
X02397Y02336*
G37*
G36*
X02387D02*
X02383Y02336D01*
X02376Y02331*
X02371Y02324*
X02371Y02321*
X02387*
Y02336*
G37*
G36*
X03472Y02314D02*
X03457D01*
Y02298*
X0346Y02298*
X03467Y02303*
X03472Y0231*
X03472Y02314*
G37*
G36*
X03447D02*
X03431D01*
X03431Y0231*
X03436Y02303*
X03443Y02298*
X03447Y02298*
Y02314*
G37*
G36*
X03318Y02312D02*
Y02296D01*
X03333*
X03333Y023*
X03328Y02307*
X03321Y02312*
X03318Y02312*
G37*
G36*
X03308D02*
X03304Y02312D01*
X03297Y02307*
X03292Y023*
X03292Y02296*
X03308*
Y02312*
G37*
G36*
X02412Y02311D02*
X02397D01*
Y02295*
X024Y02295*
X02407Y023*
X02412Y02307*
X02412Y02311*
G37*
G36*
X02387D02*
X02371D01*
X02371Y02307*
X02376Y023*
X02383Y02295*
X02387Y02295*
Y02311*
G37*
G36*
X03135Y02335D02*
X03126Y02333D01*
X03118Y02328*
X03113Y0232*
X03111Y02311*
X03113Y02301*
X03118Y02293*
X03126Y02288*
X03135Y02286*
X03145Y02288*
X03153Y02293*
X03158Y02301*
X0316Y02311*
X03158Y0232*
X03153Y02328*
X03145Y02333*
X03135Y02335*
G37*
G36*
X03333Y02286D02*
X03318D01*
Y0227*
X03321Y02271*
X03328Y02276*
X03333Y02283*
X03333Y02286*
G37*
G36*
X03308D02*
X03292D01*
X03292Y02283*
X03297Y02276*
X03304Y02271*
X03308Y0227*
Y02286*
G37*
G36*
X03374Y02272D02*
X03367Y02271D01*
X03362Y02268*
X03359Y02263*
X03358Y02257*
X03359Y0225*
X03362Y02245*
X03367Y02242*
X03374Y02241*
X0338Y02242*
X03385Y02245*
X03388Y0225*
X03389Y02257*
X03388Y02263*
X03385Y02268*
X0338Y02271*
X03374Y02272*
G37*
G36*
X03368Y02231D02*
X03362Y0223D01*
X03356Y02226*
X03353Y02221*
X03352Y02215*
X03353Y02209*
X03356Y02204*
X03362Y022*
X03368Y02199*
X03374Y022*
X03379Y02204*
X03382Y02209*
X03383Y02215*
X03382Y02221*
X03379Y02226*
X03374Y0223*
X03368Y02231*
G37*
G36*
Y02156D02*
X03362Y02155D01*
X03356Y02151*
X03353Y02146*
X03352Y0214*
X03353Y02134*
X03356Y02129*
X03362Y02126*
X03368Y02124*
X03374Y02126*
X03379Y02129*
X03382Y02134*
X03383Y0214*
X03382Y02146*
X03379Y02151*
X03374Y02155*
X03368Y02156*
G37*
G36*
X03923Y02179D02*
Y02116D01*
X03986*
X03986Y02124*
X03982Y02137*
X03975Y02149*
X03967Y0216*
X03956Y02168*
X03944Y02175*
X03931Y02179*
X03923Y02179*
G37*
G36*
X03913D02*
X03904Y02179D01*
X03891Y02175*
X03879Y02168*
X03868Y0216*
X0386Y02149*
X03853Y02137*
X03849Y02124*
X03849Y02116*
X03913*
Y02179*
G37*
G36*
X04664Y02168D02*
X04637D01*
Y02144*
X04638Y02135*
X04642Y02128*
X04647Y02121*
X04653Y02116*
X04661Y02113*
X04664Y02112*
Y02168*
G37*
G36*
X04361D02*
X04334D01*
Y02112*
X04337Y02113*
X04345Y02116*
X04352Y02121*
X04357Y02128*
X0436Y02135*
X04361Y02144*
Y02168*
G37*
G36*
X04324D02*
X04297D01*
Y02144*
X04298Y02135*
X04302Y02128*
X04307Y02121*
X04313Y02116*
X04321Y02113*
X04324Y02112*
Y02168*
G37*
G36*
X04701D02*
X04674D01*
Y02112*
X04678Y02113*
X04685Y02116*
X04692Y02121*
X04697Y02128*
X047Y02135*
X04701Y02144*
Y02168*
G37*
G36*
X04603Y02115D02*
X04598Y02114D01*
X04594Y02111*
X04591Y02107*
X0459Y02103*
X04591Y02098*
X04594Y02094*
X04598Y02091*
X04603Y0209*
X04607Y02091*
X04611Y02094*
X04614Y02098*
X04615Y02103*
X04614Y02107*
X04611Y02111*
X04607Y02114*
X04603Y02115*
G37*
G36*
X04552D02*
X04547Y02114D01*
X04543Y02111*
X0454Y02107*
X04539Y02103*
X0454Y02098*
X04543Y02094*
X04547Y02091*
X04552Y0209*
X04556Y02091*
X0456Y02094*
X04563Y02098*
X04564Y02103*
X04563Y02107*
X0456Y02111*
X04556Y02114*
X04552Y02115*
G37*
G36*
X04446D02*
X04441Y02114D01*
X04437Y02111*
X04434Y02107*
X04433Y02103*
X04434Y02098*
X04437Y02094*
X04441Y02091*
X04446Y0209*
X0445Y02091*
X04454Y02094*
X04457Y02098*
X04458Y02103*
X04457Y02107*
X04454Y02111*
X0445Y02114*
X04446Y02115*
G37*
G36*
X04394D02*
X04389Y02114D01*
X04385Y02111*
X04382Y02107*
X04381Y02103*
X04382Y02098*
X04385Y02094*
X04389Y02091*
X04394Y0209*
X04398Y02091*
X04402Y02094*
X04405Y02098*
X04406Y02103*
X04405Y02107*
X04402Y02111*
X04398Y02114*
X04394Y02115*
G37*
G36*
X04509Y02086D02*
X04504Y02085D01*
X045Y02082*
X04497Y02078*
X04496Y02074*
X04496Y02073*
X04496Y02072*
X04492Y02069*
X04489Y0207*
X04484Y02069*
X0448Y02066*
X04478Y02062*
X04477Y02058*
X04476Y02057*
X04472Y02054*
X04469Y02055*
X04465Y02054*
X04461Y02051*
X04458Y02047*
X04457Y02043*
X04458Y02038*
X04461Y02034*
X04465Y02031*
X04469Y0203*
X04474Y02031*
X04478Y02034*
X04481Y02038*
X04482Y02042*
X04482Y02043*
X04486Y02046*
X04489Y02045*
X04494Y02046*
X04498Y02049*
X045Y02053*
X04501Y02058*
X04501Y02058*
X04502Y02059*
X04505Y02062*
X04509Y02061*
X04513Y02062*
X04517Y02065*
X0452Y02069*
X04521Y02074*
X0452Y02078*
X04517Y02082*
X04513Y02085*
X04509Y02086*
G37*
G36*
X04085Y02174D02*
X04072Y02173D01*
X0406Y02169*
X04049Y02163*
X0404Y02155*
X04032Y02146*
X04026Y02135*
X04022Y02123*
X04021Y02111*
X04022Y02098*
X04026Y02086*
X04032Y02075*
X0404Y02066*
X04049Y02058*
X0406Y02052*
X04072Y02048*
X04085Y02047*
X04097Y02048*
X04109Y02052*
X0412Y02058*
X04129Y02066*
X04137Y02075*
X04143Y02086*
X04147Y02098*
X04148Y02111*
X04147Y02123*
X04143Y02135*
X04137Y02146*
X04129Y02155*
X0412Y02163*
X04109Y02169*
X04097Y02173*
X04085Y02174*
G37*
G36*
X03986Y02106D02*
X03923D01*
Y02042*
X03931Y02042*
X03944Y02046*
X03956Y02053*
X03967Y02061*
X03975Y02072*
X03982Y02084*
X03986Y02097*
X03986Y02106*
G37*
G36*
X03913D02*
X03849D01*
X03849Y02097*
X03853Y02084*
X0386Y02072*
X03868Y02061*
X03879Y02053*
X03891Y02046*
X03904Y02042*
X03913Y02042*
Y02106*
G37*
G36*
X03412Y02052D02*
Y02037D01*
X03428*
X03427Y0204*
X03423Y02047*
X03415Y02052*
X03412Y02052*
G37*
G36*
X03402D02*
X03399Y02052D01*
X03392Y02047*
X03387Y0204*
X03386Y02037*
X03402*
Y02052*
G37*
G36*
X04528Y02054D02*
X04524Y02053D01*
X0452Y0205*
X04517Y02046*
X04516Y02042*
X04517Y02037*
X0452Y02033*
X04524Y0203*
X04528Y02029*
X04533Y0203*
X04537Y02033*
X0454Y02037*
X04541Y02042*
X0454Y02046*
X04537Y0205*
X04533Y02053*
X04528Y02054*
G37*
G36*
X03428Y02027D02*
X03412D01*
Y02011*
X03415Y02011*
X03423Y02016*
X03427Y02023*
X03428Y02027*
G37*
G36*
X03402D02*
X03386D01*
X03387Y02023*
X03392Y02016*
X03399Y02011*
X03402Y02011*
Y02027*
G37*
G36*
X04674Y02013D02*
Y01967D01*
X047*
Y01982*
X04699Y0199*
X04696Y01998*
X04691Y02005*
X04684Y0201*
X04677Y02013*
X04674Y02013*
G37*
G36*
X04333D02*
Y01967D01*
X0436*
Y01982*
X04359Y0199*
X04356Y01998*
X04351Y02005*
X04344Y0201*
X04337Y02013*
X04333Y02013*
G37*
G36*
X04323D02*
X0432Y02013D01*
X04312Y0201*
X04306Y02005*
X04301Y01998*
X04298Y0199*
X04296Y01982*
Y01967*
X04323*
Y02013*
G37*
G36*
X04664D02*
X0466Y02013D01*
X04653Y0201*
X04646Y02005*
X04641Y01998*
X04638Y0199*
X04637Y01982*
Y01967*
X04664*
Y02013*
G37*
G36*
X047Y01957D02*
X04674D01*
Y01912*
X04677Y01912*
X04684Y01915*
X04691Y0192*
X04696Y01927*
X04699Y01935*
X047Y01943*
Y01957*
G37*
G36*
X0436D02*
X04333D01*
Y01912*
X04337Y01912*
X04344Y01915*
X04351Y0192*
X04356Y01927*
X04359Y01935*
X0436Y01943*
Y01957*
G37*
G36*
X04203Y02019D02*
X04193Y02017D01*
X04185Y02012*
X0418Y02004*
X04178Y01995*
X0418Y01985*
X04185Y01977*
X04193Y01972*
X04202Y0197*
X04311Y01862*
X04317Y01858*
X04324Y01856*
X04362*
X04436Y01783*
X04438Y01781*
Y01767*
X04438Y01766*
X04437Y01765*
X04434Y01763*
X04433Y01762*
X0443Y01763*
X04426Y01762*
X04423Y01764*
X04422Y01766*
X04421Y01769*
X04418Y01773*
X04414Y01776*
X0441Y01777*
X04405Y01776*
X04401Y01773*
X04398Y01769*
X04397Y01765*
X04398Y0176*
X04401Y01756*
X04405Y01753*
X0441Y01752*
X04413Y01753*
X04416Y01751*
X04418Y01749*
X04418Y01746*
X04421Y01742*
X04425Y01739*
X0443Y01738*
X04434Y01739*
X04438Y01742*
X04441Y01746*
X04442Y01749*
X04443Y01751*
X04447Y01753*
X0445Y01752*
X04453Y01753*
X04456Y01751*
X04457Y01749*
X04458Y01746*
X04461Y01742*
X04465Y01739*
X0447Y01738*
X04474Y01739*
X04478Y01742*
X04481Y01746*
X04482Y01749*
X04483Y01751*
X04486Y01753*
X04489Y01753*
X04492Y01753*
X04495Y01751*
X04496Y01749*
X04497Y01746*
X045Y01742*
X04504Y01739*
X04509Y01738*
X04513Y01739*
X04517Y01742*
X0452Y01746*
X0452Y01746*
X04524Y01749*
X04529Y01748*
X04533Y01749*
X04537Y01752*
X04537Y01752*
X04544Y01754*
X04549Y01753*
X04552Y01753*
X04555Y01751*
X04556Y0175*
X04557Y01746*
X0456Y01742*
X04564Y01739*
X04568Y01738*
X04573Y01739*
X04577Y01742*
X0458Y01746*
X0458Y01748*
X04582Y01751*
X04585Y01751*
X04588Y01751*
X04592Y01752*
X04596Y01754*
X04599Y01758*
X046Y01763*
X04599Y01768*
X04596Y01772*
X04592Y01774*
X04588Y01775*
X04583Y01774*
X04579Y01772*
X04576Y01768*
X04576Y01766*
X04574Y01763*
X0457Y01762*
X04568Y01763*
X04565Y01762*
X04563Y01763*
X04561Y01765*
X04561Y01766*
X0456Y01768*
Y01782*
X04562Y01784*
X04566Y0179*
X04568Y01798*
X04566Y01805*
X04562Y01811*
X04556Y01815*
X04548Y01817*
X04457*
X04384Y01889*
X04378Y01893*
X04371Y01895*
X04332*
X0432Y01907*
X04323Y01912*
X04323Y01912*
Y01957*
X04296*
Y01943*
X04297Y01937*
X04292Y01935*
X04226Y02002*
X04225Y02004*
X0422Y02012*
X04212Y02017*
X04203Y02019*
G37*
G36*
X04664Y01957D02*
X04637D01*
Y01943*
X04638Y01935*
X04641Y01927*
X04646Y0192*
X04653Y01915*
X0466Y01912*
X04664Y01912*
Y01957*
G37*
G36*
X02466Y02027D02*
Y01885D01*
X02608*
X02607Y01903*
X02601Y01925*
X02593Y01947*
X0258Y01967*
X02565Y01984*
X02548Y01999*
X02528Y02012*
X02506Y0202*
X02484Y02026*
X02466Y02027*
G37*
G36*
X02456D02*
X02437Y02026D01*
X02415Y0202*
X02393Y02012*
X02373Y01999*
X02356Y01984*
X02341Y01967*
X02328Y01947*
X0232Y01925*
X02314Y01903*
X02313Y01885*
X02456*
Y02027*
G37*
G36*
X04054Y02022D02*
Y0188D01*
X04196*
X04195Y01898*
X04189Y0192*
X04181Y01942*
X04168Y01962*
X04153Y01979*
X04136Y01994*
X04116Y02007*
X04094Y02015*
X04072Y02021*
X04054Y02022*
G37*
G36*
X04044D02*
X04025Y02021D01*
X04003Y02015*
X03981Y02007*
X03961Y01994*
X03944Y01979*
X03929Y01962*
X03916Y01942*
X03908Y0192*
X03902Y01898*
X03901Y0188*
X04044*
Y02022*
G37*
G36*
X04654Y01841D02*
Y01805D01*
X04675*
Y01816*
X04674Y01823*
X04672Y01829*
X04668Y01835*
X04662Y01839*
X04656Y01841*
X04654Y01841*
G37*
G36*
X04644D02*
X04643Y01841D01*
X04636Y01839*
X04631Y01835*
X04627Y01829*
X04624Y01823*
X04623Y01816*
Y01805*
X04644*
Y01841*
G37*
G36*
X04363D02*
Y01805D01*
X04384*
Y01816*
X04383Y01823*
X0438Y01829*
X04376Y01835*
X04371Y01839*
X04365Y01841*
X04363Y01841*
G37*
G36*
X04353D02*
X04351Y01841D01*
X04345Y01839*
X0434Y01835*
X04336Y01829*
X04333Y01823*
X04332Y01816*
Y01805*
X04353*
Y01841*
G37*
G36*
X04644Y01795D02*
X04623D01*
Y01785*
X04624Y01778*
X04627Y01772*
X04631Y01766*
X04636Y01762*
X04643Y0176*
X04644Y01759*
Y01795*
G37*
G36*
X04384D02*
X04363D01*
Y01759*
X04365Y0176*
X04371Y01762*
X04376Y01766*
X0438Y01772*
X04383Y01778*
X04384Y01785*
Y01795*
G37*
G36*
X04353D02*
X04332D01*
Y01785*
X04333Y01778*
X04336Y01772*
X0434Y01766*
X04345Y01762*
X04351Y0176*
X04353Y01759*
Y01795*
G37*
G36*
X04675D02*
X04654D01*
Y01759*
X04656Y0176*
X04662Y01762*
X04668Y01766*
X04672Y01772*
X04674Y01778*
X04675Y01785*
Y01795*
G37*
G36*
X02608Y01875D02*
X02466D01*
Y01732*
X02484Y01733*
X02506Y01739*
X02528Y01747*
X02548Y0176*
X02565Y01775*
X0258Y01792*
X02593Y01812*
X02601Y01834*
X02607Y01856*
X02608Y01875*
G37*
G36*
X02456D02*
X02313D01*
X02314Y01856*
X0232Y01834*
X02328Y01812*
X02341Y01792*
X02356Y01775*
X02373Y0176*
X02393Y01747*
X02415Y01739*
X02437Y01733*
X02456Y01732*
Y01875*
G37*
G36*
X04196Y0187D02*
X04054D01*
Y01727*
X04072Y01728*
X04094Y01734*
X04116Y01742*
X04136Y01755*
X04153Y0177*
X04168Y01787*
X04181Y01807*
X04189Y01829*
X04195Y01851*
X04196Y0187*
G37*
G36*
X04044D02*
X03901D01*
X03902Y01851*
X03908Y01829*
X03916Y01807*
X03929Y01787*
X03944Y0177*
X03961Y01755*
X03981Y01742*
X04003Y01734*
X04025Y01728*
X04044Y01727*
Y0187*
G37*
%LNpcb_power_measurement_copper_signal_1-3*%
%LPD*%
G54D43*
X0445Y01797D02*
X04451Y01798D01*
X0445Y01765D02*
Y01797D01*
X04548Y01765D02*
Y01798D01*
Y01765D02*
X04549Y01765D01*
G54D44*
X04371Y01876D02*
X0445Y01797D01*
X04324Y01876D02*
X04371D01*
X04205Y01995D02*
X04324Y01876D01*
X04203Y01995D02*
X04205D01*
X04451Y01798D02*
X04548D01*
G54D52*
X03662Y0313D03*
X03762D03*
X0371Y0325D03*
G54D53*
X04649Y018D03*
X04358D03*
G54D54*
X02461Y0188D03*
X04049Y01875D03*
Y03393D03*
X02461D03*
G54D55*
X04328Y01962D03*
X04669D03*
X03567Y03272D03*
X03227D03*
G54D56*
X04329Y02173D03*
X04669D03*
X03568Y03482D03*
X03228D03*
G54D57*
X02791Y03459D03*
X03114D03*
G54D58*
X03031Y03459D03*
X02874D03*
X02952D03*
G54D59*
X02975Y031D03*
X03918Y02111D03*
X02945Y02677D03*
X02376Y02969D03*
X04085Y02111D03*
Y03169D03*
G54D60*
X03615Y02875D03*
X03562Y02756D03*
X03577Y02694D03*
X03668Y02589D03*
X03549Y02669D03*
X03475Y02668D03*
X03776Y02987D03*
X03232Y03089D03*
X02514Y02617D03*
Y02667D03*
X02376Y02619D03*
Y02667D03*
X02477Y02782D03*
X02392Y02316D03*
X03503Y03032D03*
X03492Y02647D03*
X03548Y02613D03*
X03711Y02798D03*
X04085Y02595D03*
X03987Y02884D03*
X03939Y02885D03*
X03758Y02695D03*
X03512Y02812D03*
X03932Y02663D03*
X03895Y02577D03*
X03823Y02574D03*
X03896Y02822D03*
X03407Y02032D03*
X03374Y02257D03*
X03709Y02368D03*
X03452Y02319D03*
X03037Y02385D03*
Y0245D03*
X0303Y02522D03*
X03357Y03361D03*
X03313Y02291D03*
X03287Y03148D03*
X03417Y03215D03*
X03444Y03152D03*
X0335D03*
X02781Y02757D03*
X03144Y02928D03*
X03142Y03057D03*
X03193Y03184D03*
X03307Y02862D03*
X03385Y02775D03*
X03259D03*
X03496Y02917D03*
X03368Y0214D03*
Y02215D03*
X03612Y02358D03*
X03417Y03346D03*
G54D61*
X03403Y02641D03*
X04394Y02103D03*
X04568Y01751D03*
X0447D03*
X04489Y01765D03*
X0441Y01765D03*
X0443Y01751D03*
X04529Y01761D03*
X04549Y01765D03*
X0445Y01765D03*
X04509Y01751D03*
X04528Y02042D03*
X04588Y01763D03*
X04469Y02043D03*
X04489Y02058D03*
X04603Y02103D03*
X04509Y02074D03*
X04446Y02103D03*
X04552D03*
X03357Y02516D03*
X0343D03*
X0332D03*
X03319Y02443D03*
X03357D03*
X0343D03*
X03392D03*
X03466D03*
X0343Y02406D03*
Y02479D03*
X03357Y02556D03*
X0343Y02555D03*
X03466Y02516D03*
X03393D03*
X03357Y02479D03*
Y02406D03*
X0337Y03003D03*
X03395Y02978D03*
Y03028D03*
X0342Y03003D03*
X03395D03*
G54D62*
X03471Y02723D03*
G54D63*
X04203Y01995D03*
X03135Y02311D03*
M02*