%FSTAX23Y23*%
%MOIN*%
%SFA1B1*%

%IPPOS*%
%ADD74C,0.005000*%
%LNpcb_power_measurement_drillmap_1-1*%
%LPD*%
G54D74*
X03647Y0313D02*
X03677D01*
X03662Y03115D02*
Y03145D01*
X03747Y0313D02*
X03777D01*
X03762Y03115D02*
Y03145D01*
X03695Y0325D02*
X03725D01*
X0371Y03235D02*
Y03265D01*
X04639Y018D02*
X04659D01*
X04649Y01791D02*
Y0181D01*
X04348Y018D02*
X04368D01*
X04358Y01791D02*
Y0181D01*
X02382Y0188D02*
X02539D01*
X02461Y01801D02*
Y01958D01*
X0397Y01875D02*
X04127D01*
X04049Y01796D02*
Y01953D01*
X0397Y03393D02*
X04127D01*
X04049Y03314D02*
Y03471D01*
X02382Y03393D02*
X02539D01*
X02461Y03314D02*
Y03471D01*
X04297Y01962D02*
X0436D01*
X04328Y01931D02*
Y01994D01*
X04637Y01962D02*
X047D01*
X04669Y01931D02*
Y01994D01*
X04288Y02173D02*
X04371D01*
X04329Y02132D02*
Y02214D01*
X04628Y02173D02*
X04711D01*
X04669Y02132D02*
Y02214D01*
X02761Y03459D02*
X0282D01*
X02791Y03429D02*
Y03488D01*
X03084Y03459D02*
X03143D01*
X03114Y03429D02*
Y03488D01*
X03017Y03459D02*
X03045D01*
X03031Y03445D02*
Y03472D01*
X0286Y03459D02*
X02887D01*
X02874Y03445D02*
Y03472D01*
X02938Y03459D02*
X02966D01*
X02952Y03445D02*
Y03472D01*
X02935Y031D02*
X03014D01*
X02975Y0306D02*
Y03139D01*
X03527Y03482D02*
X03609D01*
X03568Y03441D02*
Y03524D01*
X03187Y03482D02*
X03269D01*
X03228Y03441D02*
Y03524D01*
X03536Y03272D02*
X03599D01*
X03567Y0324D02*
Y03303D01*
X03196Y03272D02*
X03259D01*
X03227Y0324D02*
Y03303D01*
X03878Y02111D02*
X03957D01*
X03918Y02071D02*
Y0215D01*
X02906Y02677D02*
X02985D01*
X02945Y02637D02*
Y02716D01*
X02337Y02969D02*
X02416D01*
X02376Y0293D02*
Y03008D01*
X04045Y02111D02*
X04124D01*
X04085Y02071D02*
Y0215D01*
X04045Y03169D02*
X04124D01*
X04085Y03129D02*
Y03208D01*
X03608Y02875D02*
X03623D01*
X03615Y02867D02*
Y02882D01*
X03554Y02756D02*
X03569D01*
X03562Y02748D02*
Y02763D01*
X03569Y02694D02*
X03584D01*
X03577Y02686D02*
Y02701D01*
X0366Y02589D02*
X03675D01*
X03668Y02581D02*
Y02596D01*
X03541Y02669D02*
X03556D01*
X03549Y02661D02*
Y02676D01*
X03467Y02668D02*
X03482D01*
X03475Y02661D02*
Y02676D01*
X03768Y02987D02*
X03783D01*
X03776Y02979D02*
Y02994D01*
X03224Y03089D02*
X03239D01*
X03232Y03081D02*
Y03096D01*
X02506Y02617D02*
X02521D01*
X02514Y02609D02*
Y02624D01*
X02506Y02667D02*
X02521D01*
X02514Y02659D02*
Y02674D01*
X02368Y02619D02*
X02383D01*
X02376Y02611D02*
Y02626D01*
X02368Y02667D02*
X02383D01*
X02376Y02659D02*
Y02674D01*
X02469Y02782D02*
X02484D01*
X02477Y02774D02*
Y02789D01*
X02384Y02316D02*
X02399D01*
X02392Y02308D02*
Y02323D01*
X03495Y03032D02*
X0351D01*
X03503Y03024D02*
Y03039D01*
X03396Y02641D02*
X03411D01*
X03403Y02633D02*
Y02648D01*
X03461Y02723D02*
X03481D01*
X03471Y02713D02*
Y02733D01*
X03484Y02647D02*
X03499D01*
X03492Y02639D02*
Y02654D01*
X0354Y02613D02*
X03555D01*
X03548Y02605D02*
Y0262D01*
X03703Y02798D02*
X03718D01*
X03711Y02791D02*
Y02806D01*
X04077Y02595D02*
X04092D01*
X04085Y02587D02*
Y02602D01*
X03979Y02884D02*
X03994D01*
X03987Y02876D02*
Y02891D01*
X03931Y02885D02*
X03946D01*
X03939Y02877D02*
Y02892D01*
X0375Y02695D02*
X03765D01*
X03758Y02687D02*
Y02702D01*
X03504Y02812D02*
X03519D01*
X03512Y02804D02*
Y02819D01*
X03924Y02663D02*
X03939D01*
X03932Y02655D02*
Y0267D01*
X03887Y02577D02*
X03902D01*
X03895Y02569D02*
Y02584D01*
X03815Y02574D02*
X0383D01*
X03823Y02566D02*
Y02581D01*
X03888Y02822D02*
X03903D01*
X03896Y02814D02*
Y02829D01*
X04389Y02103D02*
X04399D01*
X04394Y02098D02*
Y02108D01*
X04188Y01995D02*
X04218D01*
X04203Y0198D02*
Y0201D01*
X04563Y01751D02*
X04573D01*
X04568Y01746D02*
Y01756D01*
X04465Y01751D02*
X04475D01*
X0447Y01746D02*
Y01756D01*
X04484Y01765D02*
X04494D01*
X04489Y0176D02*
Y0177D01*
X04405Y01765D02*
X04415D01*
X0441Y0176D02*
Y0177D01*
X04425Y01751D02*
X04435D01*
X0443Y01746D02*
Y01756D01*
X04524Y01761D02*
X04534D01*
X04529Y01756D02*
Y01766D01*
X04544Y01765D02*
X04554D01*
X04549Y0176D02*
Y0177D01*
X04445Y01765D02*
X04455D01*
X0445Y0176D02*
Y0177D01*
X04504Y01751D02*
X04514D01*
X04509Y01746D02*
Y01756D01*
X04523Y02042D02*
X04533D01*
X04528Y02037D02*
Y02047D01*
X04583Y01763D02*
X04593D01*
X04588Y01758D02*
Y01768D01*
X04464Y02043D02*
X04474D01*
X04469Y02038D02*
Y02048D01*
X034Y02032D02*
X03415D01*
X03407Y02024D02*
Y02039D01*
X03366Y02257D02*
X03381D01*
X03374Y02249D02*
Y02264D01*
X04484Y02058D02*
X04494D01*
X04489Y02053D02*
Y02063D01*
X04598Y02103D02*
X04608D01*
X04603Y02098D02*
Y02108D01*
X04504Y02074D02*
X04514D01*
X04509Y02069D02*
Y02079D01*
X04441Y02103D02*
X04451D01*
X04446Y02098D02*
Y02108D01*
X04547Y02103D02*
X04557D01*
X04552Y02098D02*
Y02108D01*
X03353Y02516D02*
X03361D01*
X03357Y02512D02*
Y0252D01*
X03426Y02516D02*
X03434D01*
X0343Y02512D02*
Y0252D01*
X03316Y02516D02*
X03324D01*
X0332Y02512D02*
Y0252D01*
X03315Y02443D02*
X03323D01*
X03319Y02439D02*
Y02447D01*
X03353Y02443D02*
X03361D01*
X03357Y02439D02*
Y02447D01*
X03426Y02443D02*
X03434D01*
X0343Y02439D02*
Y02447D01*
X03388Y02443D02*
X03396D01*
X03392Y02439D02*
Y02447D01*
X03462Y02443D02*
X0347D01*
X03466Y02439D02*
Y02447D01*
X03426Y02406D02*
X03434D01*
X0343Y02402D02*
Y0241D01*
X03426Y02479D02*
X03434D01*
X0343Y02475D02*
Y02483D01*
X03353Y02556D02*
X03361D01*
X03357Y02552D02*
Y0256D01*
X03426Y02555D02*
X03434D01*
X0343Y02551D02*
Y02559D01*
X03462Y02516D02*
X0347D01*
X03466Y02512D02*
Y0252D01*
X03389Y02516D02*
X03397D01*
X03393Y02512D02*
Y0252D01*
X03353Y02479D02*
X03361D01*
X03357Y02475D02*
Y02483D01*
X03353Y02406D02*
X03361D01*
X03357Y02402D02*
Y0241D01*
X03366Y03003D02*
X03374D01*
X0337Y02999D02*
Y03007D01*
X03391Y02978D02*
X03399D01*
X03395Y02974D02*
Y02982D01*
X03391Y03028D02*
X03399D01*
X03395Y03024D02*
Y03032D01*
X03416Y03003D02*
X03424D01*
X0342Y02999D02*
Y03007D01*
X03391Y03003D02*
X03399D01*
X03395Y02999D02*
Y03007D01*
X03701Y02368D02*
X03716D01*
X03709Y02361D02*
Y02376D01*
X03444Y02319D02*
X03459D01*
X03452Y02311D02*
Y02326D01*
X0312Y02311D02*
X0315D01*
X03135Y02296D02*
Y02326D01*
X03029Y02385D02*
X03044D01*
X03037Y02378D02*
Y02393D01*
X03029Y0245D02*
X03044D01*
X03037Y02442D02*
Y02457D01*
X03023Y02522D02*
X03038D01*
X0303Y02514D02*
Y02529D01*
X03349Y03361D02*
X03364D01*
X03357Y03353D02*
Y03368D01*
X03305Y02291D02*
X0332D01*
X03313Y02284D02*
Y02299D01*
X03279Y03148D02*
X03294D01*
X03287Y03141D02*
Y03156D01*
X03409Y03215D02*
X03424D01*
X03417Y03208D02*
Y03223D01*
X03437Y03152D02*
X03452D01*
X03444Y03145D02*
Y0316D01*
X03342Y03152D02*
X03357D01*
X0335Y03145D02*
Y0316D01*
X02773Y02757D02*
X02788D01*
X02781Y0275D02*
Y02765D01*
X03136Y02928D02*
X03151D01*
X03144Y0292D02*
Y02935D01*
X03135Y03057D02*
X0315D01*
X03142Y03049D02*
Y03064D01*
X03186Y03184D02*
X03201D01*
X03193Y03176D02*
Y03191D01*
X03299Y02862D02*
X03314D01*
X03307Y02854D02*
Y02869D01*
X03377Y02775D02*
X03392D01*
X03385Y02768D02*
Y02783D01*
X03251Y02775D02*
X03266D01*
X03259Y02768D02*
Y02783D01*
X03488Y02917D02*
X03503D01*
X03496Y0291D02*
Y02925D01*
X0336Y0214D02*
X03375D01*
X03368Y02133D02*
Y02148D01*
X0336Y02215D02*
X03375D01*
X03368Y02208D02*
Y02223D01*
X03604Y02358D02*
X03619D01*
X03612Y0235D02*
Y02365D01*
X03409Y03346D02*
X03424D01*
X03417Y03338D02*
Y03353D01*
M02*