%FSTAX23Y23*%
%MOIN*%
%SFA1B1*%

%IPPOS*%
%AMD82*
4,1,8,0.027600,0.009500,-0.027600,0.009500,-0.032900,0.004100,-0.032900,-0.004100,-0.027600,-0.009500,0.027600,-0.009500,0.032900,-0.004100,0.032900,0.004100,0.027600,0.009500,0.0*
1,1,0.010756,0.027600,0.004100*
1,1,0.010756,-0.027600,0.004100*
1,1,0.010756,-0.027600,-0.004100*
1,1,0.010756,0.027600,-0.004100*
%
%AMD91*
4,1,8,-0.008900,0.007100,-0.008900,-0.007100,-0.005200,-0.010900,0.005200,-0.010900,0.008900,-0.007100,0.008900,0.007100,0.005200,0.010900,-0.005200,0.010900,-0.008900,0.007100,0.0*
1,1,0.007444,-0.005200,0.007100*
1,1,0.007444,-0.005200,-0.007100*
1,1,0.007444,0.005200,-0.007100*
1,1,0.007444,0.005200,0.007100*
%
%AMD92*
4,1,8,0.007100,0.008900,-0.007100,0.008900,-0.010900,0.005200,-0.010900,-0.005200,-0.007100,-0.008900,0.007100,-0.008900,0.010900,-0.005200,0.010900,0.005200,0.007100,0.008900,0.0*
1,1,0.007444,0.007100,0.005200*
1,1,0.007444,-0.007100,0.005200*
1,1,0.007444,-0.007100,-0.005200*
1,1,0.007444,0.007100,-0.005200*
%
%AMD93*
4,1,8,0.007100,-0.015800,0.007100,0.015800,0.004800,0.018100,-0.004800,0.018100,-0.007100,0.015800,-0.007100,-0.015800,-0.004800,-0.018100,0.004800,-0.018100,0.007100,-0.015800,0.0*
1,1,0.004716,0.004800,-0.015800*
1,1,0.004716,0.004800,0.015800*
1,1,0.004716,-0.004800,0.015800*
1,1,0.004716,-0.004800,-0.015800*
%
%AMD94*
4,1,8,0.007100,-0.016200,0.007100,0.016200,0.004800,0.018500,-0.004800,0.018500,-0.007100,0.016200,-0.007100,-0.016200,-0.004800,-0.018500,0.004800,-0.018500,0.007100,-0.016200,0.0*
1,1,0.004716,0.004800,-0.016200*
1,1,0.004716,0.004800,0.016200*
1,1,0.004716,-0.004800,0.016200*
1,1,0.004716,-0.004800,-0.016200*
%
%AMD95*
4,1,8,0.015800,0.007100,-0.015800,0.007100,-0.018100,0.004800,-0.018100,-0.004800,-0.015800,-0.007100,0.015800,-0.007100,0.018100,-0.004800,0.018100,0.004800,0.015800,0.007100,0.0*
1,1,0.004716,0.015800,0.004800*
1,1,0.004716,-0.015800,0.004800*
1,1,0.004716,-0.015800,-0.004800*
1,1,0.004716,0.015800,-0.004800*
%
%ADD64C,0.068000*%
%ADD65C,0.283591*%
%ADD66O,0.051307X0.090677*%
%ADD67O,0.051307X0.110362*%
%ADD68O,0.055240X0.086740*%
%ADD69O,0.063118X0.051307*%
%ADD70C,0.126110*%
%ADD80R,0.049339X0.070992*%
%ADD81R,0.019811X0.039496*%
G04~CAMADD=82~8~0.0~0.0~658.7~190.2~53.8~0.0~15~0.0~0.0~0.0~0.0~0~0.0~0.0~0.0~0.0~0~0.0~0.0~0.0~0.0~658.7~190.2*
%ADD82D82*%
%ADD83R,0.041465X0.045402*%
%ADD84R,0.074929X0.053276*%
%ADD85R,0.047370X0.043433*%
%ADD86R,0.015811X0.031559*%
%ADD87R,0.043370X0.031559*%
%ADD88R,0.027685X0.031622*%
%ADD89R,0.055181X0.059118*%
%ADD90R,0.216598X0.216598*%
G04~CAMADD=91~8~0.0~0.0~217.2~177.8~37.2~0.0~15~0.0~0.0~0.0~0.0~0~0.0~0.0~0.0~0.0~0~0.0~0.0~0.0~90.0~178.0~218.0*
%ADD91D91*%
G04~CAMADD=92~8~0.0~0.0~217.2~177.8~37.2~0.0~15~0.0~0.0~0.0~0.0~0~0.0~0.0~0.0~0.0~0~0.0~0.0~0.0~0.0~217.2~177.8*
%ADD92D92*%
G04~CAMADD=93~8~0.0~0.0~362.8~142.4~23.6~0.0~15~0.0~0.0~0.0~0.0~0~0.0~0.0~0.0~0.0~0~0.0~0.0~0.0~270.0~142.0~362.0*
%ADD93D93*%
G04~CAMADD=94~8~0.0~0.0~370.7~142.4~23.6~0.0~15~0.0~0.0~0.0~0.0~0~0.0~0.0~0.0~0.0~0~0.0~0.0~0.0~270.0~142.0~370.0*
%ADD94D94*%
G04~CAMADD=95~8~0.0~0.0~362.8~142.4~23.6~0.0~15~0.0~0.0~0.0~0.0~0~0.0~0.0~0.0~0.0~0~0.0~0.0~0.0~0.0~362.8~142.4*
%ADD95D95*%
%ADD96R,0.110299X0.110299*%
%ADD97R,0.145795X0.100520*%
%ADD98R,0.043433X0.047370*%
%ADD99R,0.106425X0.053276*%
%ADD100R,0.104457X0.092646*%
%ADD101R,0.078866X0.059181*%
%ADD102R,0.045402X0.033591*%
%ADD103R,0.031622X0.033197*%
%ADD104R,0.031622X0.037528*%
%ADD105R,0.059181X0.078866*%
%ADD106R,0.045402X0.043433*%
%ADD107R,0.045402X0.041465*%
%ADD108R,0.110362X0.067055*%
%ADD109R,0.043433X0.039496*%
%ADD110O,0.067055X0.031622*%
%ADD111R,0.023748X0.035559*%
%ADD112C,0.031000*%
%ADD113C,0.024000*%
%LNpcb_power_measurement_soldermask_top-1*%
%LPD*%
G54D64*
X03662Y0313D03*
X03762D03*
X0371Y0325D03*
G54D65*
X02461Y0188D03*
X04049Y01875D03*
Y03393D03*
X02461D03*
G54D66*
X04328Y01962D03*
X04669D03*
X03567Y03272D03*
X03227D03*
G54D67*
X04329Y02173D03*
X04669D03*
X03568Y03482D03*
X03228D03*
G54D68*
X02791Y03459D03*
X03114D03*
G54D69*
X03031Y03459D03*
X02874D03*
X02952D03*
G54D70*
X02975Y031D03*
X03918Y02111D03*
X02945Y02677D03*
X02376Y02969D03*
X04085Y02111D03*
Y03169D03*
G54D80*
X03369Y02034D03*
X03194D03*
X03619Y02035D03*
X03444D03*
G54D81*
X04607Y01734D03*
X04587D03*
X04568D03*
X04548D03*
X04528D03*
X04509D03*
X04489D03*
X04469D03*
X0445D03*
X0443D03*
X0441D03*
X0439D03*
X044Y01793D03*
X0442D03*
X0444D03*
X04459D03*
X04479D03*
X04499D03*
X04518D03*
X04538D03*
X04558D03*
X04577D03*
X04597D03*
X04617D03*
G54D82*
X03652Y02733D03*
Y02714D03*
Y02694D03*
Y02674D03*
Y02654D03*
X03821D03*
Y02674D03*
Y02694D03*
Y02714D03*
Y02733D03*
X03652Y02986D03*
Y02967D03*
Y02947D03*
Y02927D03*
Y02908D03*
X03821D03*
Y02927D03*
Y02947D03*
Y02967D03*
Y02986D03*
G54D83*
X03699Y03049D03*
X03648D03*
X03711Y02603D03*
X03762D03*
X04006Y02977D03*
X03955D03*
X04006Y02782D03*
X03955D03*
X04006Y02719D03*
X03955D03*
X03763Y02847D03*
X03712D03*
X04006Y0304D03*
X03955D03*
X03145Y02179D03*
X03196D03*
X03773Y02328D03*
X03824D03*
X03181Y02927D03*
X03232D03*
Y02864D03*
X03181D03*
X03232Y0299D03*
X03181D03*
X03507Y03185D03*
X03559D03*
X03236D03*
X03287D03*
G54D84*
X04085Y02687D03*
Y02812D03*
Y02945D03*
Y03069D03*
G54D85*
X03895Y02665D03*
Y02611D03*
Y02864D03*
Y02917D03*
Y02981D03*
Y03034D03*
Y02777D03*
Y02724D03*
X03513Y02776D03*
Y02723D03*
X03385Y0273D03*
Y02677D03*
X03322Y0273D03*
Y02677D03*
X03259D03*
Y0273D03*
G54D86*
X04597Y01946D03*
X04577D03*
X04558D03*
X04538D03*
X04518D03*
X04617D03*
X04459D03*
X04439D03*
X0442D03*
X044D03*
X0438D03*
X04479D03*
X0441Y01998D03*
X0443D03*
X04449D03*
X04469D03*
X04489D03*
X04528D03*
X04548D03*
X04567D03*
X04587D03*
X04508D03*
X03407Y03307D03*
X03486D03*
X03466D03*
X03446D03*
X03427D03*
X03387D03*
X03368D03*
X03348D03*
X03328D03*
X03309D03*
X03377Y03255D03*
X03279D03*
X03299D03*
X03318D03*
X03338D03*
X03358D03*
X03515D03*
X03417D03*
X03437D03*
X03456D03*
X03476D03*
X03496D03*
G54D87*
X04376Y01998D03*
X04621Y01998D03*
X03519Y03307D03*
X03275Y03307D03*
G54D88*
X03227Y02539D03*
X03192D03*
G54D89*
X03269Y0229D03*
X03206D03*
X03073Y02522D03*
X03136D03*
G54D90*
X03393Y0248D03*
G54D91*
X03285Y02608D03*
X03305D03*
X03324D03*
X03344D03*
X03364D03*
X03383D03*
X03403D03*
X03423D03*
X03442D03*
X03462D03*
X03482D03*
X03501D03*
Y02351D03*
X03482D03*
X03462D03*
X03442D03*
X03423D03*
X03403D03*
X03383D03*
X03364D03*
X03344D03*
X03324D03*
X03305D03*
X03285D03*
G54D92*
X03522Y02588D03*
Y02568D03*
Y02549D03*
Y02529D03*
Y02509D03*
Y0249D03*
Y0247D03*
Y0245D03*
Y02431D03*
Y02411D03*
Y02391D03*
Y02372D03*
X03265D03*
Y02391D03*
Y02411D03*
Y02431D03*
Y0245D03*
Y0247D03*
Y0249D03*
Y02509D03*
Y02529D03*
Y02549D03*
Y02568D03*
Y02588D03*
G54D93*
X03405Y0308D03*
X03425D03*
X03385D03*
X03366D03*
X03346D03*
X03385Y02926D03*
X03366D03*
X03346D03*
X03405D03*
X03425D03*
X03444D03*
G54D94*
X03444Y03081D03*
G54D95*
X03318Y03013D03*
Y03033D03*
Y03053D03*
Y02994D03*
Y02974D03*
Y02954D03*
X03472Y02994D03*
Y02974D03*
Y02954D03*
Y03013D03*
Y03033D03*
Y03053D03*
G54D96*
X03395Y03003D03*
G54D97*
X02594Y02485D03*
Y02249D03*
G54D98*
X03347Y02293D03*
X034D03*
X03655Y02328D03*
X03708D03*
X03082Y02384D03*
X03135D03*
X03082Y0245D03*
X03135D03*
X03404Y02862D03*
X03351D03*
X03233Y03057D03*
X0318D03*
Y0312D03*
X03233D03*
G54D99*
X02815Y02373D03*
Y02249D03*
X02511Y02868D03*
Y02992D03*
G54D100*
X02445Y02643D03*
X02615D03*
G54D101*
X0239Y0225D03*
Y02364D03*
G54D102*
X02615Y02763D03*
Y02803D03*
Y02842D03*
X02723D03*
Y02803D03*
Y02763D03*
G54D103*
X02687Y02905D03*
X02652D03*
G54D104*
X0283Y02842D03*
Y02797D03*
X02781D03*
Y02842D03*
G54D105*
X02423Y0278D03*
X02537D03*
G54D106*
X02727Y02564D03*
Y02688D03*
G54D107*
X03652Y02791D03*
Y02842D03*
X03537Y02889D03*
Y0294D03*
G54D108*
X02924Y0199D03*
Y01789D03*
G54D109*
X03253Y02178D03*
X03332Y02215D03*
Y0214D03*
X03482Y02178D03*
X03403Y0214D03*
Y02215D03*
G54D110*
X03823Y02396D03*
Y02446D03*
Y02496D03*
Y02546D03*
X03611Y02396D03*
Y02446D03*
Y02496D03*
Y02546D03*
G54D111*
X03444Y03183D03*
X03417D03*
X0335D03*
X03377D03*
G54D112*
X03232Y03089D03*
X02514Y02617D03*
Y02667D03*
X02376Y02619D03*
Y02667D03*
X02477Y02782D03*
X02392Y02316D03*
X03374Y02257D03*
X03313Y02291D03*
G54D113*
X03357Y02516D03*
X0343D03*
X0332D03*
X03319Y02443D03*
X03357D03*
X0343D03*
X03392D03*
X03466D03*
X0343Y02406D03*
Y02479D03*
X03357Y02556D03*
X0343Y02555D03*
X03466Y02516D03*
X03393D03*
X03357Y02479D03*
Y02406D03*
X0337Y03003D03*
X03395Y02978D03*
Y03028D03*
X0342Y03003D03*
X03395D03*
M02*